RobotoSerifMicro-SuperWideItalic03ip.ufo
<glyph name="percent" format="2">
  <advance width="954"/>
  <unicode hex="0025"/>
  <outline>
    <contour>
      <point x="318" y="753" type="curve" smooth="yes"/>
      <point x="147" y="753"/>
      <point x="67" y="607"/>
      <point x="67" y="489" type="curve" smooth="yes"/>
      <point x="67" y="400"/>
      <point x="131" y="348"/>
      <point x="245" y="348" type="curve" smooth="yes"/>
      <point x="416" y="348"/>
      <point x="496" y="495"/>
      <point x="496" y="612" type="curve" smooth="yes"/>
      <point x="496" y="701"/>
      <point x="432" y="753"/>
    </contour>
    <contour>
      <point x="316" y="674" type="curve" smooth="yes"/>
      <point x="341" y="674"/>
      <point x="349" y="661"/>
      <point x="349" y="639" type="curve" smooth="yes"/>
      <point x="349" y="587"/>
      <point x="311" y="427"/>
      <point x="248" y="427" type="curve" smooth="yes"/>
      <point x="222" y="427"/>
      <point x="214" y="440"/>
      <point x="214" y="462" type="curve" smooth="yes"/>
      <point x="214" y="514"/>
      <point x="253" y="674"/>
    </contour>
    <contour>
      <point x="720" y="379" type="curve" smooth="yes"/>
      <point x="549" y="379"/>
      <point x="469" y="233"/>
      <point x="469" y="114" type="curve" smooth="yes"/>
      <point x="469" y="26"/>
      <point x="533" y="-27"/>
      <point x="647" y="-27" type="curve" smooth="yes"/>
      <point x="818" y="-27"/>
      <point x="898" y="120"/>
      <point x="898" y="237" type="curve" smooth="yes"/>
      <point x="898" y="326"/>
      <point x="834" y="379"/>
    </contour>
    <contour>
      <point x="718" y="299" type="curve" smooth="yes"/>
      <point x="743" y="299"/>
      <point x="751" y="287"/>
      <point x="751" y="264" type="curve" smooth="yes"/>
      <point x="751" y="213"/>
      <point x="712" y="53"/>
      <point x="649" y="53" type="curve" smooth="yes"/>
      <point x="624" y="53"/>
      <point x="616" y="65"/>
      <point x="616" y="88" type="curve" smooth="yes"/>
      <point x="616" y="139"/>
      <point x="655" y="299"/>
    </contour>
    <component base="fraction" xOffset="386"/>
  </outline>
</glyph>
<glyph name="plus" format="2">
  <advance width="680"/>
  <unicode hex="002B"/>
  <outline>
    <contour>
      <point x="327" y="579" type="line"/>
      <point x="175" y="81" type="line"/>
      <point x="355" y="81" type="line"/>
      <point x="506" y="579" type="line"/>
    </contour>
    <contour>
      <point x="656" y="406" type="line"/>
      <point x="69" y="406" type="line"/>
      <point x="26" y="254" type="line"/>
      <point x="613" y="254" type="line"/>
    </contour>
  </outline>
</glyph>
<glyph name="comma" format="2">
  <advance width="550"/>
  <unicode hex="002C"/>
  <outline>
    <contour>
      <point x="78" y="-250" type="line"/>
      <point x="336" y="-223"/>
      <point x="440" y="-54"/>
      <point x="440" y="82" type="curve" smooth="yes"/>
      <point x="440" y="175"/>
      <point x="374" y="219"/>
      <point x="250" y="219" type="curve" smooth="yes"/>
      <point x="127" y="219"/>
      <point x="69" y="165"/>
      <point x="69" y="90" type="curve" smooth="yes"/>
      <point x="69" y="21"/>
      <point x="136" y="-8"/>
      <point x="219" y="-8" type="curve" smooth="yes"/>
      <point x="260" y="-8"/>
      <point x="301" y="0"/>
      <point x="340" y="11" type="curve"/>
      <point x="341" y="64"/>
      <point x="313" y="61"/>
      <point x="288" y="15" type="curve"/>
      <point x="256" y="-94"/>
      <point x="180" y="-114"/>
      <point x="-9" y="-130" type="curve"/>
    </contour>
  </outline>
</glyph>
<glyph name="two" format="2">
  <advance width="685"/>
  <unicode hex="0032"/>
  <outline>
    <contour>
      <point x="-57" y="0" type="line"/>
      <point x="1" y="199" type="line"/>
      <point x="370" y="316"/>
      <point x="433" y="442"/>
      <point x="433" y="540" type="curve" smooth="yes"/>
      <point x="433" y="585"/>
      <point x="411" y="599"/>
      <point x="356" y="599" type="curve" smooth="yes"/>
      <point x="314" y="599"/>
      <point x="256" y="581"/>
      <point x="228" y="568" type="curve"/>
      <point x="215" y="584"/>
      <point x="262" y="612"/>
      <point x="309" y="615" type="curve" smooth="yes"/>
      <point x="259" y="453" type="line"/>
      <point x="72" y="453" type="line"/>
      <point x="131" y="651" type="line"/>
      <point x="178" y="665"/>
      <point x="271" y="697"/>
      <point x="391" y="697" type="curve" smooth="yes"/>
      <point x="595" y="697"/>
      <point x="680" y="637"/>
      <point x="680" y="522" type="curve" smooth="yes"/>
      <point x="680" y="319"/>
      <point x="467" y="271"/>
      <point x="44" y="144" type="curve"/>
      <point x="37" y="157" type="line"/>
      <point x="350" y="157" type="line" smooth="yes"/>
      <point x="445" y="157"/>
      <point x="479" y="159"/>
      <point x="497" y="196" type="curve" smooth="yes"/>
      <point x="526" y="246" type="line"/>
      <point x="630" y="246" type="line"/>
      <point x="559" y="0" type="line"/>
    </contour>
  </outline>
</glyph>
<glyph name="three" format="2">
  <advance width="686"/>
  <unicode hex="0033"/>
  <outline>
    <contour>
      <point x="248" y="-55" type="curve" smooth="yes"/>
      <point x="51" y="-55"/>
      <point x="-12" y="17"/>
      <point x="-47" y="109" type="curve"/>
      <point x="84" y="152" type="line"/>
      <point x="107" y="96"/>
      <point x="136" y="44"/>
      <point x="238" y="44" type="curve" smooth="yes"/>
      <point x="342" y="44"/>
      <point x="369" y="121"/>
      <point x="369" y="193" type="curve" smooth="yes"/>
      <point x="369" y="243"/>
      <point x="340" y="280"/>
      <point x="255" y="280" type="curve" smooth="yes"/>
      <point x="143" y="280" type="line"/>
      <point x="174" y="383" type="line"/>
      <point x="294" y="383" type="line"/>
      <point x="407" y="383"/>
      <point x="449" y="460"/>
      <point x="449" y="534" type="curve" smooth="yes"/>
      <point x="449" y="590"/>
      <point x="421" y="604"/>
      <point x="354" y="604" type="curve" smooth="yes"/>
      <point x="316" y="604"/>
      <point x="276" y="599"/>
      <point x="248" y="594" type="curve"/>
      <point x="254" y="610"/>
      <point x="273" y="617"/>
      <point x="312" y="621" type="curve"/>
      <point x="270" y="486" type="line"/>
      <point x="96" y="486" type="line"/>
      <point x="148" y="665" type="line"/>
      <point x="201" y="681"/>
      <point x="281" y="698"/>
      <point x="391" y="698" type="curve" smooth="yes"/>
      <point x="579" y="698"/>
      <point x="675" y="645"/>
      <point x="675" y="534" type="curve" smooth="yes"/>
      <point x="675" y="400"/>
      <point x="565" y="341"/>
      <point x="365" y="334" type="curve"/>
      <point x="411" y="346" type="line"/>
      <point x="400" y="307" type="line"/>
      <point x="362" y="332" type="line"/>
      <point x="529" y="317"/>
      <point x="607" y="264"/>
      <point x="607" y="163" type="curve" smooth="yes"/>
      <point x="607" y="27"/>
      <point x="491" y="-55"/>
    </contour>
  </outline>
</glyph>
<glyph name="less" format="2">
  <advance width="680"/>
  <unicode hex="003C"/>
  <outline>
    <contour>
      <point x="500" y="53" type="line"/>
      <point x="76" y="260" type="line"/>
      <point x="119" y="410" type="line"/>
      <point x="667" y="617" type="line"/>
      <point x="622" y="448" type="line"/>
      <point x="206" y="304" type="line"/>
      <point x="221" y="357" type="line"/>
      <point x="548" y="213" type="line"/>
    </contour>
  </outline>
</glyph>
<glyph name="J" format="2">
  <advance width="861"/>
  <unicode hex="004A"/>
  <anchor x="556" y="741" name="top"/>
  <outline>
    <contour>
      <point x="533" y="574" type="curve" smooth="yes"/>
      <point x="426" y="234" type="line" smooth="yes"/>
      <point x="390" y="115"/>
      <point x="341" y="81"/>
      <point x="275" y="81" type="curve" smooth="yes"/>
      <point x="215" y="81"/>
      <point x="165" y="103"/>
      <point x="149" y="124" type="curve"/>
      <point x="97" y="154"/>
      <point x="126" y="57"/>
      <point x="170" y="43" type="curve"/>
      <point x="240" y="281" type="line"/>
      <point x="30" y="281" type="line"/>
      <point x="-35" y="57" type="line"/>
      <point x="29" y="10"/>
      <point x="145" y="-25"/>
      <point x="310" y="-25" type="curve" smooth="yes"/>
      <point x="516" y="-25"/>
      <point x="649" y="44"/>
      <point x="700" y="211" type="curve" smooth="yes"/>
      <point x="812" y="574" type="line" smooth="yes"/>
      <point x="820" y="603"/>
      <point x="850" y="610"/>
      <point x="885" y="610" type="curve" smooth="yes"/>
      <point x="909" y="610" type="line"/>
      <point x="940" y="710" type="line"/>
      <point x="464" y="710" type="line"/>
      <point x="434" y="610" type="line"/>
      <point x="470" y="610" type="line" smooth="yes"/>
      <point x="506" y="610"/>
      <point x="542" y="603"/>
    </contour>
  </outline>
</glyph>
<glyph name="W" format="2">
  <advance width="1349"/>
  <unicode hex="0057"/>
  <anchor x="709" y="741" name="top"/>
  <outline>
    <contour>
      <point x="147" y="710" type="line"/>
      <point x="117" y="610" type="line"/>
      <point x="126" y="610" type="line" smooth="yes"/>
      <point x="159" y="610"/>
      <point x="179" y="605"/>
      <point x="178" y="586" type="curve" smooth="yes"/>
      <point x="151" y="0" type="line"/>
      <point x="448" y="0" type="line"/>
      <point x="778" y="538" type="line"/>
      <point x="756" y="542" type="line"/>
      <point x="724" y="0" type="line"/>
      <point x="1008" y="0" type="line"/>
      <point x="1335" y="565" type="line" smooth="yes"/>
      <point x="1353" y="594"/>
      <point x="1375" y="610"/>
      <point x="1410" y="610" type="curve" smooth="yes"/>
      <point x="1420" y="610" type="line"/>
      <point x="1450" y="710" type="line"/>
      <point x="1199" y="710" type="line"/>
      <point x="1169" y="610" type="line"/>
      <point x="1183" y="610" type="line" smooth="yes"/>
      <point x="1223" y="610"/>
      <point x="1236" y="600"/>
      <point x="1233" y="591" type="curve"/>
      <point x="962" y="131" type="line"/>
      <point x="990" y="149" type="line"/>
      <point x="1022" y="710" type="line"/>
      <point x="756" y="710" type="line"/>
      <point x="425" y="166" type="line"/>
      <point x="433" y="143" type="line"/>
      <point x="468" y="599" type="line"/>
      <point x="470" y="606"/>
      <point x="492" y="610"/>
      <point x="527" y="610" type="curve" smooth="yes"/>
      <point x="540" y="610" type="line"/>
      <point x="569" y="710" type="line"/>
    </contour>
  </outline>
</glyph>
<glyph name="asciicircum" format="2">
  <advance width="680"/>
  <unicode hex="005E"/>
  <outline>
    <contour>
      <point x="241" y="302" type="line"/>
      <point x="465" y="612" type="line"/>
      <point x="508" y="716" type="line"/>
      <point x="360" y="716" type="line"/>
      <point x="37" y="302" type="line"/>
    </contour>
    <contour>
      <point x="483" y="302" type="line"/>
      <point x="685" y="302" type="line"/>
      <point x="611" y="716" type="line"/>
      <point x="452" y="716" type="line"/>
      <point x="447" y="612" type="line"/>
    </contour>
  </outline>
</glyph>
<glyph name="d" format="2">
  <advance width="925"/>
  <unicode hex="0064"/>
  <anchor x="808" y="735" name="right"/>
  <anchor x="445" y="0" name="bottom"/>
  <outline>
    <contour>
      <point x="272" y="-12" type="curve" smooth="yes"/>
      <point x="403" y="-12"/>
      <point x="475" y="57"/>
      <point x="585" y="206" type="curve"/>
      <point x="591" y="249" type="line"/>
      <point x="483" y="153"/>
      <point x="437" y="118"/>
      <point x="376" y="118" type="curve" smooth="yes"/>
      <point x="331" y="118"/>
      <point x="305" y="140"/>
      <point x="305" y="186" type="curve" smooth="yes"/>
      <point x="305" y="280"/>
      <point x="362" y="453"/>
      <point x="470" y="453" type="curve" smooth="yes"/>
      <point x="543" y="453"/>
      <point x="577" y="398"/>
      <point x="613" y="329" type="curve"/>
      <point x="623" y="360" type="line"/>
      <point x="616" y="511"/>
      <point x="552" y="583"/>
      <point x="397" y="583" type="curve" smooth="yes"/>
      <point x="181" y="583"/>
      <point x="42" y="389"/>
      <point x="42" y="206" type="curve" smooth="yes"/>
      <point x="42" y="61"/>
      <point x="127" y="-12"/>
    </contour>
    <contour>
      <point x="662" y="0" type="curve" smooth="yes"/>
      <point x="717" y="0"/>
      <point x="773" y="0"/>
      <point x="829" y="0" type="curve"/>
      <point x="861" y="118" type="line"/>
      <point x="844" y="118"/>
      <point x="827" y="118"/>
      <point x="811" y="118" type="curve" smooth="yes"/>
      <point x="787" y="118"/>
      <point x="775" y="125"/>
      <point x="775" y="143" type="curve" smooth="yes"/>
      <point x="775" y="157"/>
      <point x="785" y="182"/>
      <point x="809" y="252" type="curve" smooth="yes"/>
      <point x="970" y="780" type="line"/>
      <point x="639" y="780" type="line"/>
      <point x="611" y="685" type="line"/>
      <point x="621" y="683" type="line" smooth="yes"/>
      <point x="654" y="677"/>
      <point x="675" y="671"/>
      <point x="671" y="663" type="curve" smooth="yes"/>
      <point x="513" y="142" type="line"/>
      <point x="527" y="138" type="line"/>
      <point x="527" y="115"/>
      <point x="527" y="108"/>
      <point x="527" y="97" type="curve" smooth="yes"/>
      <point x="527" y="35"/>
      <point x="576" y="0"/>
    </contour>
  </outline>
</glyph>
<glyph name="l" format="2">
  <advance width="481"/>
  <unicode hex="006C"/>
  <anchor x="258" y="746" name="top"/>
  <anchor x="393" y="735" name="right"/>
  <anchor x="465" y="391" name="mid"/>
  <anchor x="261" y="0" name="bottom"/>
  <outline>
    <contour>
      <point x="353" y="252" type="curve" smooth="yes"/>
      <point x="512" y="780" type="line"/>
      <point x="181" y="780" type="line"/>
      <point x="154" y="685" type="line"/>
      <point x="163" y="683" type="line" smooth="yes"/>
      <point x="197" y="677"/>
      <point x="219" y="672"/>
      <point x="215" y="663" type="curve" smooth="yes"/>
      <point x="89" y="247" type="line" smooth="yes"/>
      <point x="61" y="161"/>
      <point x="48" y="127"/>
      <point x="48" y="96" type="curve" smooth="yes"/>
      <point x="48" y="34"/>
      <point x="99" y="0"/>
      <point x="184" y="0" type="curve" smooth="yes"/>
      <point x="247" y="0"/>
      <point x="310" y="0"/>
      <point x="373" y="0" type="curve"/>
      <point x="404" y="118" type="line"/>
      <point x="387" y="118"/>
      <point x="370" y="118"/>
      <point x="353" y="118" type="curve" smooth="yes"/>
      <point x="329" y="118"/>
      <point x="317" y="125"/>
      <point x="317" y="143" type="curve" smooth="yes"/>
      <point x="317" y="157"/>
      <point x="329" y="182"/>
    </contour>
  </outline>
</glyph>
<glyph name="z" format="2">
  <advance width="805"/>
  <unicode hex="007A"/>
  <anchor x="406" y="572" name="top"/>
  <anchor x="432" y="0" name="bottom"/>
  <outline>
    <contour>
      <point x="526" y="-12" type="curve" smooth="yes"/>
      <point x="690" y="-12"/>
      <point x="771" y="105"/>
      <point x="755" y="284" type="curve"/>
      <point x="662" y="295" type="line"/>
      <point x="633" y="199"/>
      <point x="598" y="177"/>
      <point x="503" y="177" type="curve" smooth="yes"/>
      <point x="397" y="177"/>
      <point x="356" y="199"/>
      <point x="326" y="210" type="curve"/>
      <point x="282" y="163" type="line"/>
      <point x="339" y="75"/>
      <point x="378" y="-12"/>
    </contour>
    <contour>
      <point x="116" y="0" type="line"/>
      <point x="739" y="428" type="line"/>
      <point x="780" y="572" type="line"/>
      <point x="133" y="572" type="line"/>
      <point x="52" y="299" type="line"/>
      <point x="162" y="299" type="line"/>
      <point x="190" y="347" type="line" smooth="yes"/>
      <point x="212" y="387"/>
      <point x="244" y="399"/>
      <point x="349" y="399" type="curve" smooth="yes"/>
      <point x="588" y="399" type="line"/>
      <point x="573" y="438" type="line"/>
      <point x="1" y="58" type="line"/>
      <point x="-15" y="0" type="line"/>
    </contour>
  </outline>
</glyph>
<glyph name="asciitilde" format="2">
  <advance width="680"/>
  <unicode hex="007E"/>
  <outline>
    <contour>
      <point x="265" y="495" type="curve" smooth="yes"/>
      <point x="137" y="495"/>
      <point x="85" y="406"/>
      <point x="30" y="222" type="curve"/>
      <point x="148" y="203" type="line"/>
      <point x="171" y="283"/>
      <point x="193" y="351"/>
      <point x="238" y="351" type="curve" smooth="yes"/>
      <point x="309" y="351"/>
      <point x="281" y="197"/>
      <point x="446" y="197" type="curve" smooth="yes"/>
      <point x="589" y="197"/>
      <point x="636" y="295"/>
      <point x="691" y="478" type="curve"/>
      <point x="578" y="502" type="line"/>
      <point x="552" y="409"/>
      <point x="530" y="341"/>
      <point x="477" y="341" type="curve" smooth="yes"/>
      <point x="402" y="341"/>
      <point x="427" y="495"/>
    </contour>
  </outline>
</glyph>
<glyph name="brokenbar" format="2">
  <advance width="458"/>
  <unicode hex="00A6"/>
  <outline>
    <contour>
      <point x="154" y="780" type="line"/>
      <point x="154" y="404" type="line"/>
      <point x="304" y="404" type="line"/>
      <point x="304" y="780" type="line"/>
    </contour>
    <contour>
      <point x="154" y="218" type="line"/>
      <point x="154" y="-158" type="line"/>
      <point x="304" y="-158" type="line"/>
      <point x="304" y="218" type="line"/>
    </contour>
  </outline>
</glyph>
<glyph name="section" format="2">
  <advance width="769"/>
  <unicode hex="00A7"/>
  <outline>
    <contour>
      <point x="226" y="-236" type="curve" smooth="yes"/>
      <point x="447" y="-236"/>
      <point x="578" y="-153"/>
      <point x="578" y="-17" type="curve" smooth="yes"/>
      <point x="578" y="69"/>
      <point x="500" y="137"/>
      <point x="404" y="180" type="curve" smooth="yes"/>
      <point x="302" y="227"/>
      <point x="217" y="259"/>
      <point x="217" y="308" type="curve" smooth="yes"/>
      <point x="217" y="343"/>
      <point x="256" y="364"/>
      <point x="328" y="364" type="curve"/>
      <point x="277" y="418" type="line"/>
      <point x="106" y="418"/>
      <point x="20" y="351"/>
      <point x="20" y="247" type="curve" smooth="yes"/>
      <point x="20" y="157"/>
      <point x="84" y="113"/>
      <point x="190" y="62" type="curve" smooth="yes"/>
      <point x="281" y="19"/>
      <point x="364" y="-18"/>
      <point x="364" y="-69" type="curve" smooth="yes"/>
      <point x="364" y="-119"/>
      <point x="320" y="-140"/>
      <point x="231" y="-140" type="curve" smooth="yes"/>
      <point x="127" y="-140"/>
      <point x="93" y="-125"/>
      <point x="50" y="-93" type="curve"/>
      <point x="48" y="-91"/>
      <point x="71" y="-149"/>
      <point x="100" y="-172" type="curve"/>
      <point x="141" y="-33" type="line"/>
      <point x="-42" y="-33" type="line"/>
      <point x="-83" y="-173" type="line"/>
      <point x="-30" y="-201"/>
      <point x="67" y="-236"/>
    </contour>
    <contour>
      <point x="450" y="103" type="line"/>
      <point x="626" y="107"/>
      <point x="745" y="162"/>
      <point x="745" y="281" type="curve" smooth="yes"/>
      <point x="745" y="379"/>
      <point x="667" y="418"/>
      <point x="550" y="471" type="curve" smooth="yes"/>
      <point x="468" y="505"/>
      <point x="397" y="530"/>
      <point x="397" y="574" type="curve" smooth="yes"/>
      <point x="397" y="609"/>
      <point x="425" y="625"/>
      <point x="505" y="625" type="curve" smooth="yes"/>
      <point x="583" y="625"/>
      <point x="643" y="610"/>
      <point x="683" y="592" type="curve"/>
      <point x="680" y="596"/>
      <point x="644" y="663"/>
      <point x="608" y="665" type="curve"/>
      <point x="570" y="533" type="line"/>
      <point x="745" y="533" type="line"/>
      <point x="787" y="668" type="line"/>
      <point x="752" y="686"/>
      <point x="652" y="720"/>
      <point x="508" y="720" type="curve" smooth="yes"/>
      <point x="295" y="720"/>
      <point x="200" y="631"/>
      <point x="200" y="532" type="curve" smooth="yes"/>
      <point x="200" y="443"/>
      <point x="271" y="384"/>
      <point x="359" y="340" type="curve" smooth="yes"/>
      <point x="461" y="287"/>
      <point x="547" y="254"/>
      <point x="547" y="213" type="curve" smooth="yes"/>
      <point x="547" y="180"/>
      <point x="505" y="162"/>
      <point x="423" y="166" type="curve"/>
    </contour>
  </outline>
</glyph>
<glyph name="ordfeminine" format="2">
  <advance width="847"/>
  <unicode hex="00AA"/>
  <outline>
    <contour>
      <point x="571" y="282" type="curve" smooth="yes"/>
      <point x="619" y="282"/>
      <point x="666" y="282"/>
      <point x="713" y="282" type="curve"/>
      <point x="737" y="371" type="line"/>
      <point x="724" y="371"/>
      <point x="712" y="371"/>
      <point x="699" y="371" type="curve" smooth="yes"/>
      <point x="681" y="371"/>
      <point x="672" y="377"/>
      <point x="672" y="391" type="curve" smooth="yes"/>
      <point x="672" y="402"/>
      <point x="679" y="421"/>
      <point x="697" y="476" type="curve" smooth="yes"/>
      <point x="772" y="722" type="line"/>
      <point x="626" y="722" type="line"/>
      <point x="534" y="624" type="line"/>
      <point x="520" y="597" type="line"/>
      <point x="459" y="392" type="line"/>
      <point x="468" y="385" type="line"/>
      <point x="467" y="370"/>
      <point x="467" y="365"/>
      <point x="467" y="356" type="curve" smooth="yes"/>
      <point x="467" y="308"/>
      <point x="506" y="282"/>
    </contour>
    <contour>
      <point x="276" y="273" type="curve" smooth="yes"/>
      <point x="374" y="273"/>
      <point x="430" y="326"/>
      <point x="518" y="441" type="curve"/>
      <point x="509" y="481" type="line"/>
      <point x="441" y="407"/>
      <point x="409" y="381"/>
      <point x="369" y="381" type="curve" smooth="yes"/>
      <point x="336" y="381"/>
      <point x="320" y="396"/>
      <point x="320" y="432" type="curve" smooth="yes"/>
      <point x="320" y="490"/>
      <point x="359" y="622"/>
      <point x="441" y="622" type="curve" smooth="yes"/>
      <point x="496" y="622"/>
      <point x="510" y="580"/>
      <point x="526" y="528" type="curve"/>
      <point x="555" y="562" type="line"/>
      <point x="544" y="675"/>
      <point x="502" y="730"/>
      <point x="381" y="730" type="curve" smooth="yes"/>
      <point x="216" y="730"/>
      <point x="106" y="582"/>
      <point x="106" y="440" type="curve" smooth="yes"/>
      <point x="106" y="328"/>
      <point x="170" y="273"/>
    </contour>
  </outline>
</glyph>
<glyph name="acute" format="2">
  <advance width="612"/>
  <unicode hex="00B4"/>
  <anchor x="289" y="527" name="_top"/>
  <outline>
    <contour>
      <point x="330" y="811" type="curve" smooth="yes"/>
      <point x="226" y="675" type="line"/>
      <point x="214" y="630" type="line"/>
      <point x="279" y="630" type="line"/>
      <point x="436" y="685" type="line" smooth="yes"/>
      <point x="512" y="713"/>
      <point x="576" y="738"/>
      <point x="576" y="806" type="curve" smooth="yes"/>
      <point x="576" y="851"/>
      <point x="540" y="892"/>
      <point x="467" y="892" type="curve" smooth="yes"/>
      <point x="403" y="892"/>
      <point x="364" y="857"/>
    </contour>
  </outline>
</glyph>
<glyph name="cedilla" format="2">
  <advance width="613"/>
  <unicode hex="00B8"/>
  <anchor x="304" y="34" name="_bottom"/>
  <outline>
    <contour>
      <point x="303" y="-313" type="curve" smooth="yes"/>
      <point x="456" y="-313"/>
      <point x="523" y="-257"/>
      <point x="523" y="-180" type="curve" smooth="yes"/>
      <point x="523" y="-114"/>
      <point x="461" y="-78"/>
      <point x="302" y="-76" type="curve"/>
      <point x="291" y="-95" type="line"/>
      <point x="455" y="6" type="line"/>
      <point x="318" y="6" type="line"/>
      <point x="206" y="-145" type="line"/>
      <point x="233" y="-145" type="line" smooth="yes"/>
      <point x="314" y="-145"/>
      <point x="343" y="-160"/>
      <point x="343" y="-189" type="curve" smooth="yes"/>
      <point x="343" y="-219"/>
      <point x="324" y="-239"/>
      <point x="276" y="-239" type="curve" smooth="yes"/>
      <point x="212" y="-239"/>
      <point x="177" y="-206"/>
      <point x="163" y="-193" type="curve"/>
      <point x="93" y="-249" type="line"/>
      <point x="129" y="-289"/>
      <point x="190" y="-313"/>
    </contour>
  </outline>
</glyph>
<glyph name="Eth" format="2">
  <advance width="1025"/>
  <unicode hex="00D0"/>
  <outline>
    <contour>
      <point x="30" y="316" type="line"/>
      <point x="541" y="316" type="line"/>
      <point x="569" y="416" type="line"/>
      <point x="59" y="416" type="line"/>
    </contour>
    <component base="D"/>
  </outline>
</glyph>
<glyph name="multiply" format="2">
  <advance width="680"/>
  <unicode hex="00D7"/>
  <outline>
    <contour>
      <point x="117" y="117" type="line"/>
      <point x="660" y="459" type="line"/>
      <point x="568" y="565" type="line"/>
      <point x="25" y="223" type="line"/>
    </contour>
    <contour>
      <point x="434" y="117" type="line"/>
      <point x="574" y="206" type="line"/>
      <point x="251" y="565" type="line"/>
      <point x="110" y="476" type="line"/>
    </contour>
  </outline>
</glyph>
<glyph name="Oslash" format="2">
  <advance width="1014"/>
  <unicode hex="00D8"/>
  <anchor x="508" y="731" name="top"/>
  <outline>
    <contour>
      <point x="-93" y="-25" type="line"/>
      <point x="64" y="-25" type="line"/>
      <point x="1121" y="735" type="line"/>
      <point x="964" y="735" type="line"/>
    </contour>
    <contour>
      <point x="440" y="-25" type="curve" smooth="yes"/>
      <point x="838" y="-25"/>
      <point x="985" y="236"/>
      <point x="985" y="458" type="curve" smooth="yes"/>
      <point x="985" y="611"/>
      <point x="841" y="735"/>
      <point x="599" y="735" type="curve" smooth="yes"/>
      <point x="202" y="735"/>
      <point x="54" y="474"/>
      <point x="54" y="252" type="curve" smooth="yes"/>
      <point x="54" y="99"/>
      <point x="199" y="-25"/>
    </contour>
    <contour>
      <point x="452" y="83" type="curve" smooth="yes"/>
      <point x="350" y="83"/>
      <point x="313" y="113"/>
      <point x="313" y="173" type="curve" smooth="yes"/>
      <point x="313" y="246"/>
      <point x="326" y="284"/>
      <point x="351" y="367" type="curve" smooth="yes"/>
      <point x="411" y="557"/>
      <point x="468" y="627"/>
      <point x="587" y="627" type="curve" smooth="yes"/>
      <point x="692" y="627"/>
      <point x="727" y="597"/>
      <point x="727" y="537" type="curve" smooth="yes"/>
      <point x="727" y="464"/>
      <point x="713" y="426"/>
      <point x="688" y="343" type="curve" smooth="yes"/>
      <point x="628" y="153"/>
      <point x="571" y="83"/>
    </contour>
  </outline>
</glyph>
<glyph name="Thorn" format="2">
  <advance width="952"/>
  <unicode hex="00DE"/>
  <outline>
    <contour>
      <point x="392" y="455" type="line"/>
      <point x="561" y="455" type="line" smooth="yes"/>
      <point x="628" y="455"/>
      <point x="659" y="433"/>
      <point x="659" y="393" type="curve" smooth="yes"/>
      <point x="659" y="323"/>
      <point x="617" y="258"/>
      <point x="523" y="258" type="curve" smooth="yes"/>
      <point x="331" y="258" type="line"/>
      <point x="302" y="160" type="line"/>
      <point x="574" y="160" type="line" smooth="yes"/>
      <point x="771" y="160"/>
      <point x="933" y="228"/>
      <point x="933" y="381" type="curve" smooth="yes"/>
      <point x="933" y="488"/>
      <point x="825" y="554"/>
      <point x="612" y="554" type="curve" smooth="yes"/>
      <point x="413" y="554" type="line"/>
    </contour>
    <contour>
      <point x="59" y="126" type="line" smooth="yes"/>
      <point x="51" y="97"/>
      <point x="23" y="90"/>
      <point x="-14" y="90" type="curve" smooth="yes"/>
      <point x="-27" y="90" type="line"/>
      <point x="-53" y="0" type="line"/>
      <point x="398" y="0" type="line"/>
      <point x="429" y="101" type="line"/>
      <point x="398" y="101" type="line" smooth="yes"/>
      <point x="358" y="101"/>
      <point x="332" y="104"/>
      <point x="334" y="111" type="curve" smooth="yes"/>
      <point x="488" y="600" type="line" smooth="yes"/>
      <point x="490" y="607"/>
      <point x="522" y="610"/>
      <point x="546" y="610" type="curve" smooth="yes"/>
      <point x="556" y="610" type="line"/>
      <point x="586" y="710" type="line"/>
      <point x="165" y="710" type="line"/>
      <point x="139" y="621" type="line"/>
      <point x="151" y="621" type="line" smooth="yes"/>
      <point x="187" y="621"/>
      <point x="211" y="614"/>
      <point x="202" y="585" type="curve" smooth="yes"/>
    </contour>
  </outline>
</glyph>
<glyph name="ae" format="2">
  <advance width="1225"/>
  <unicode hex="00E6"/>
  <anchor x="620" y="572" name="top"/>
  <outline>
    <contour>
      <point x="810" y="-15" type="curve" smooth="yes"/>
      <point x="977" y="-15"/>
      <point x="1080" y="44"/>
      <point x="1154" y="140" type="curve"/>
      <point x="1060" y="206" type="line"/>
      <point x="1017" y="160"/>
      <point x="961" y="104"/>
      <point x="866" y="104" type="curve" smooth="yes"/>
      <point x="767" y="104"/>
      <point x="717" y="135"/>
      <point x="717" y="233" type="curve" smooth="yes"/>
      <point x="717" y="367"/>
      <point x="780" y="478"/>
      <point x="896" y="478" type="curve" smooth="yes"/>
      <point x="947" y="478"/>
      <point x="967" y="457"/>
      <point x="967" y="417" type="curve" smooth="yes"/>
      <point x="967" y="318"/>
      <point x="855" y="303"/>
      <point x="657" y="298" type="curve"/>
      <point x="663" y="215" type="line"/>
      <point x="986" y="222"/>
      <point x="1192" y="276"/>
      <point x="1192" y="428" type="curve" smooth="yes"/>
      <point x="1192" y="511"/>
      <point x="1111" y="584"/>
      <point x="922" y="584" type="curve" smooth="yes"/>
      <point x="786" y="584"/>
      <point x="675" y="539"/>
      <point x="598" y="426" type="curve"/>
      <point x="523" y="401"/>
      <point x="463" y="324"/>
      <point x="463" y="214" type="curve" smooth="yes"/>
      <point x="463" y="71"/>
      <point x="594" y="-15"/>
    </contour>
    <contour>
      <point x="471" y="287" type="line"/>
      <point x="701" y="390" type="line"/>
      <point x="701" y="428" type="line" smooth="yes"/>
      <point x="701" y="520"/>
      <point x="600" y="584"/>
      <point x="435" y="584" type="curve" smooth="yes"/>
      <point x="306" y="584"/>
      <point x="201" y="550"/>
      <point x="156" y="530" type="curve"/>
      <point x="108" y="372" type="line"/>
      <point x="317" y="372" type="line"/>
      <point x="356" y="501" type="line"/>
      <point x="311" y="505"/>
      <point x="298" y="480"/>
      <point x="288" y="463" type="curve"/>
      <point x="302" y="470"/>
      <point x="357" y="482"/>
      <point x="421" y="482" type="curve" smooth="yes"/>
      <point x="488" y="482"/>
      <point x="512" y="466"/>
      <point x="512" y="439" type="curve" smooth="yes"/>
      <point x="512" y="427"/>
      <point x="510" y="416"/>
      <point x="503" y="393" type="curve"/>
    </contour>
    <contour>
      <point x="250" y="-12" type="curve" smooth="yes"/>
      <point x="385" y="-12"/>
      <point x="449" y="25"/>
      <point x="534" y="125" type="curve"/>
      <point x="492" y="166" type="line"/>
      <point x="420" y="96"/>
      <point x="386" y="89"/>
      <point x="332" y="89" type="curve" smooth="yes"/>
      <point x="278" y="89"/>
      <point x="258" y="110"/>
      <point x="258" y="138" type="curve" smooth="yes"/>
      <point x="258" y="189"/>
      <point x="282" y="230"/>
      <point x="503" y="243" type="curve"/>
      <point x="526" y="323" type="line"/>
      <point x="123" y="318"/>
      <point x="27" y="243"/>
      <point x="27" y="131" type="curve" smooth="yes"/>
      <point x="27" y="35"/>
      <point x="102" y="-12"/>
    </contour>
  </outline>
</glyph>
<glyph name="oslash" format="2">
  <advance width="864"/>
  <unicode hex="00F8"/>
  <anchor x="432" y="572" name="top"/>
  <outline>
    <contour>
      <point x="386" y="-15" type="curve" smooth="yes"/>
      <point x="726" y="-15"/>
      <point x="822" y="189"/>
      <point x="822" y="342" type="curve" smooth="yes"/>
      <point x="822" y="484"/>
      <point x="684" y="584"/>
      <point x="480" y="584" type="curve" smooth="yes"/>
      <point x="139" y="584"/>
      <point x="43" y="380"/>
      <point x="43" y="227" type="curve" smooth="yes"/>
      <point x="43" y="84"/>
      <point x="181" y="-15"/>
    </contour>
    <contour>
      <point x="-57" y="-15" type="line"/>
      <point x="93" y="-15" type="line"/>
      <point x="924" y="584" type="line"/>
      <point x="774" y="584" type="line"/>
    </contour>
    <contour>
      <point x="392" y="91" type="curve" smooth="yes"/>
      <point x="301" y="91"/>
      <point x="282" y="119"/>
      <point x="282" y="152" type="curve" smooth="yes"/>
      <point x="282" y="216"/>
      <point x="290" y="252"/>
      <point x="311" y="315" type="curve" smooth="yes"/>
      <point x="340" y="401"/>
      <point x="369" y="478"/>
      <point x="473" y="478" type="curve" smooth="yes"/>
      <point x="564" y="478"/>
      <point x="583" y="449"/>
      <point x="583" y="417" type="curve" smooth="yes"/>
      <point x="583" y="353"/>
      <point x="575" y="317"/>
      <point x="554" y="254" type="curve" smooth="yes"/>
      <point x="525" y="168"/>
      <point x="495" y="91"/>
    </contour>
  </outline>
</glyph>
<glyph name="Hbar" format="2">
  <advance width="1050"/>
  <unicode hex="0126"/>
  <outline>
    <contour>
      <point x="256" y="358" type="line"/>
      <point x="234" y="279" type="line"/>
      <point x="744" y="279" type="line"/>
      <point x="767" y="358" type="line"/>
    </contour>
    <contour>
      <point x="61" y="444" type="line"/>
      <point x="1067" y="444" type="line"/>
      <point x="1090" y="523" type="line"/>
      <point x="84" y="523" type="line"/>
    </contour>
    <contour>
      <point x="-53" y="0" type="line"/>
      <point x="368" y="0" type="line"/>
      <point x="398" y="101" type="line"/>
      <point x="389" y="101" type="line" smooth="yes"/>
      <point x="364" y="101"/>
      <point x="332" y="104"/>
      <point x="334" y="111" type="curve" smooth="yes"/>
      <point x="488" y="600" type="line" smooth="yes"/>
      <point x="490" y="607"/>
      <point x="522" y="610"/>
      <point x="546" y="610" type="curve" smooth="yes"/>
      <point x="556" y="610" type="line"/>
      <point x="586" y="710" type="line"/>
      <point x="165" y="710" type="line"/>
      <point x="135" y="610" type="line"/>
      <point x="148" y="610" type="line" smooth="yes"/>
      <point x="184" y="610"/>
      <point x="209" y="603"/>
      <point x="200" y="574" type="curve" smooth="yes"/>
      <point x="64" y="137" type="line" smooth="yes"/>
      <point x="54" y="108"/>
      <point x="26" y="101"/>
      <point x="-9" y="101" type="curve" smooth="yes"/>
      <point x="-23" y="101" type="line"/>
    </contour>
    <contour>
      <point x="484" y="0" type="line"/>
      <point x="906" y="0" type="line"/>
      <point x="935" y="101" type="line"/>
      <point x="922" y="101" type="line" smooth="yes"/>
      <point x="887" y="101"/>
      <point x="861" y="108"/>
      <point x="871" y="137" type="curve" smooth="yes"/>
      <point x="1007" y="574" type="line" smooth="yes"/>
      <point x="1017" y="603"/>
      <point x="1044" y="610"/>
      <point x="1080" y="610" type="curve" smooth="yes"/>
      <point x="1094" y="610" type="line"/>
      <point x="1123" y="710" type="line"/>
      <point x="702" y="710" type="line"/>
      <point x="672" y="610" type="line"/>
      <point x="682" y="610" type="line" smooth="yes"/>
      <point x="707" y="610"/>
      <point x="738" y="607"/>
      <point x="736" y="600" type="curve" smooth="yes"/>
      <point x="583" y="111" type="line" smooth="yes"/>
      <point x="581" y="104"/>
      <point x="548" y="101"/>
      <point x="524" y="101" type="curve" smooth="yes"/>
      <point x="514" y="101" type="line"/>
    </contour>
  </outline>
</glyph>
<glyph name="Lslash" format="2">
  <advance width="915"/>
  <unicode hex="0141"/>
  <outline>
    <contour>
      <point x="3" y="174" type="line"/>
      <point x="736" y="453" type="line"/>
      <point x="769" y="568" type="line"/>
      <point x="35" y="289" type="line"/>
    </contour>
    <component base="L" xOffset="49"/>
  </outline>
</glyph>
<glyph name="Ohorn" format="2">
  <advance width="1104"/>
  <unicode hex="01A0"/>
  <anchor x="566" y="742" name="top"/>
  <outline>
    <contour>
      <point x="450" y="83" type="curve" smooth="yes"/>
      <point x="366" y="83"/>
      <point x="320" y="105"/>
      <point x="320" y="167" type="curve" smooth="yes"/>
      <point x="320" y="218"/>
      <point x="334" y="282"/>
      <point x="359" y="365" type="curve" smooth="yes"/>
      <point x="420" y="552"/>
      <point x="480" y="627"/>
      <point x="590" y="627" type="curve" smooth="yes"/>
      <point x="674" y="627"/>
      <point x="720" y="605"/>
      <point x="720" y="544" type="curve" smooth="yes"/>
      <point x="720" y="493"/>
      <point x="705" y="428"/>
      <point x="680" y="345" type="curve" smooth="yes"/>
      <point x="619" y="158"/>
      <point x="559" y="83"/>
    </contour>
    <contour>
      <point x="447" y="-25" type="curve" smooth="yes"/>
      <point x="833" y="-25"/>
      <point x="978" y="238"/>
      <point x="978" y="402" type="curve" smooth="yes"/>
      <point x="978" y="504"/>
      <point x="887" y="594"/>
      <point x="774" y="638" type="curve"/>
      <point x="850" y="535" type="line"/>
      <point x="871" y="607" type="line"/>
      <point x="756" y="648" type="line"/>
      <point x="824" y="602"/>
      <point x="897" y="570"/>
      <point x="986" y="570" type="curve" smooth="yes"/>
      <point x="1094" y="570"/>
      <point x="1186" y="637"/>
      <point x="1235" y="888" type="curve"/>
      <point x="1035" y="888" type="line"/>
      <point x="998" y="751"/>
      <point x="967" y="698"/>
      <point x="884" y="698" type="curve" smooth="yes"/>
      <point x="811" y="698"/>
      <point x="731" y="735"/>
      <point x="592" y="735" type="curve" smooth="yes"/>
      <point x="194" y="735"/>
      <point x="54" y="474"/>
      <point x="54" y="252" type="curve" smooth="yes"/>
      <point x="54" y="84"/>
      <point x="206" y="-25"/>
    </contour>
  </outline>
</glyph>
<glyph name="icaron" format="2">
  <advance width="481"/>
  <unicode hex="01D0"/>
  <outline>
    <contour>
      <point x="222" y="630" type="line"/>
      <point x="112" y="830" type="line"/>
      <point x="127" y="883" type="line"/>
      <point x="203" y="883" type="line"/>
      <point x="373" y="773" type="line"/>
      <point x="313" y="771" type="line"/>
      <point x="542" y="883" type="line"/>
      <point x="636" y="883" type="line"/>
      <point x="620" y="830" type="line"/>
      <point x="393" y="630" type="line"/>
    </contour>
    <component base="dotlessi"/>
  </outline>
</glyph>
<glyph name="Oogonek" format="2">
  <advance width="1014"/>
  <unicode hex="01EA"/>
  <outline>
    <contour>
      <point x="450" y="83" type="curve" smooth="yes"/>
      <point x="366" y="83"/>
      <point x="320" y="105"/>
      <point x="320" y="167" type="curve" smooth="yes"/>
      <point x="320" y="218"/>
      <point x="334" y="282"/>
      <point x="359" y="365" type="curve" smooth="yes"/>
      <point x="420" y="552"/>
      <point x="480" y="627"/>
      <point x="590" y="627" type="curve" smooth="yes"/>
      <point x="674" y="627"/>
      <point x="720" y="605"/>
      <point x="720" y="544" type="curve" smooth="yes"/>
      <point x="720" y="493"/>
      <point x="705" y="428"/>
      <point x="680" y="345" type="curve" smooth="yes"/>
      <point x="619" y="158"/>
      <point x="559" y="83"/>
    </contour>
    <contour>
      <point x="450" y="-252" type="curve" smooth="yes"/>
      <point x="552" y="-252"/>
      <point x="619" y="-228"/>
      <point x="669" y="-189" type="curve"/>
      <point x="625" y="-131" type="line"/>
      <point x="599" y="-147"/>
      <point x="563" y="-170"/>
      <point x="518" y="-170" type="curve" smooth="yes"/>
      <point x="480" y="-170"/>
      <point x="460" y="-158"/>
      <point x="460" y="-125" type="curve" smooth="yes"/>
      <point x="460" y="-31"/>
      <point x="693" y="-16"/>
      <point x="816" y="86" type="curve" smooth="yes"/>
      <point x="940" y="190"/>
      <point x="985" y="329"/>
      <point x="985" y="457" type="curve" smooth="yes"/>
      <point x="985" y="625"/>
      <point x="834" y="735"/>
      <point x="592" y="735" type="curve" smooth="yes"/>
      <point x="194" y="735"/>
      <point x="54" y="474"/>
      <point x="54" y="252" type="curve" smooth="yes"/>
      <point x="54" y="84"/>
      <point x="206" y="-25"/>
      <point x="447" y="-25" type="curve" smooth="yes"/>
      <point x="507" y="-25"/>
      <point x="562" y="-19"/>
      <point x="610" y="-8" type="curve"/>
      <point x="665" y="31" type="line"/>
      <point x="298" y="-46"/>
      <point x="238" y="-67"/>
      <point x="238" y="-147" type="curve" smooth="yes"/>
      <point x="238" y="-222"/>
      <point x="312" y="-252"/>
    </contour>
  </outline>
</glyph>
<glyph name="dotaccent" format="2">
  <advance width="613"/>
  <unicode hex="02D9"/>
  <anchor x="312" y="526" name="_top"/>
  <outline>
    <contour>
      <point x="338" y="610" type="curve" smooth="yes"/>
      <point x="245" y="610"/>
      <point x="190" y="643"/>
      <point x="190" y="717" type="curve" smooth="yes"/>
      <point x="190" y="788"/>
      <point x="245" y="824"/>
      <point x="338" y="824" type="curve" smooth="yes"/>
      <point x="430" y="824"/>
      <point x="484" y="788"/>
      <point x="484" y="717" type="curve" smooth="yes"/>
      <point x="484" y="645"/>
      <point x="430" y="610"/>
    </contour>
  </outline>
</glyph>
<glyph name="tilde" format="2">
  <advance width="613"/>
  <unicode hex="02DC"/>
  <anchor x="306" y="516" name="_top"/>
  <outline>
    <contour>
      <point x="395" y="615" type="curve" smooth="yes"/>
      <point x="488" y="615"/>
      <point x="552" y="675"/>
      <point x="607" y="851" type="curve"/>
      <point x="504" y="876" type="line"/>
      <point x="471" y="798"/>
      <point x="456" y="766"/>
      <point x="420" y="766" type="curve" smooth="yes"/>
      <point x="355" y="766"/>
      <point x="365" y="868"/>
      <point x="220" y="868" type="curve" smooth="yes"/>
      <point x="116" y="868"/>
      <point x="68" y="805"/>
      <point x="7" y="637" type="curve"/>
      <point x="112" y="611" type="line"/>
      <point x="144" y="687"/>
      <point x="155" y="720"/>
      <point x="189" y="720" type="curve" smooth="yes"/>
      <point x="255" y="720"/>
      <point x="239" y="615"/>
    </contour>
  </outline>
</glyph>
<glyph name="Omega" format="2">
  <advance width="1114"/>
  <unicode hex="03A9"/>
  <outline>
    <contour>
      <point x="619" y="631" type="curve" smooth="yes"/>
      <point x="445" y="631"/>
      <point x="383" y="550"/>
      <point x="383" y="431" type="curve" smooth="yes"/>
      <point x="383" y="323"/>
      <point x="423" y="243"/>
      <point x="468" y="179" type="curve"/>
      <point x="417" y="0" type="line"/>
      <point x="-14" y="0" type="line"/>
      <point x="60" y="246" type="line"/>
      <point x="164" y="246" type="line"/>
      <point x="158" y="195" type="line" smooth="yes"/>
      <point x="154" y="159"/>
      <point x="186" y="157"/>
      <point x="281" y="157" type="curve" smooth="yes"/>
      <point x="437" y="157" type="line"/>
      <point x="410" y="113" type="line"/>
      <point x="266" y="257"/>
      <point x="144" y="357"/>
      <point x="144" y="475" type="curve" smooth="yes"/>
      <point x="144" y="616"/>
      <point x="291" y="735"/>
      <point x="628" y="735" type="curve" smooth="yes"/>
      <point x="896" y="735"/>
      <point x="1058" y="650"/>
      <point x="1058" y="528" type="curve" smooth="yes"/>
      <point x="1058" y="371"/>
      <point x="930" y="315"/>
      <point x="599" y="113" type="curve"/>
      <point x="595" y="157" type="line"/>
      <point x="765" y="157" type="line" smooth="yes"/>
      <point x="860" y="157"/>
      <point x="895" y="159"/>
      <point x="913" y="195" type="curve" smooth="yes"/>
      <point x="942" y="246" type="line"/>
      <point x="1046" y="246" type="line"/>
      <point x="974" y="0" type="line"/>
      <point x="528" y="0" type="line"/>
      <point x="579" y="179" type="line"/>
      <point x="730" y="305"/>
      <point x="820" y="392"/>
      <point x="820" y="505" type="curve" smooth="yes"/>
      <point x="820" y="588"/>
      <point x="765" y="631"/>
    </contour>
  </outline>
</glyph>
<glyph name="idieresisacute" format="2">
  <advance width="481"/>
  <unicode hex="1E2F"/>
  <outline>
    <contour>
      <point x="146" y="610" type="curve" smooth="yes"/>
      <point x="53" y="610"/>
      <point x="-2" y="643"/>
      <point x="-2" y="717" type="curve" smooth="yes"/>
      <point x="-2" y="788"/>
      <point x="53" y="824"/>
      <point x="146" y="824" type="curve" smooth="yes"/>
      <point x="238" y="824"/>
      <point x="292" y="788"/>
      <point x="292" y="717" type="curve" smooth="yes"/>
      <point x="292" y="645"/>
      <point x="238" y="610"/>
    </contour>
    <contour>
      <point x="497" y="610" type="curve" smooth="yes"/>
      <point x="404" y="610"/>
      <point x="350" y="643"/>
      <point x="350" y="717" type="curve" smooth="yes"/>
      <point x="350" y="788"/>
      <point x="404" y="824"/>
      <point x="497" y="824" type="curve" smooth="yes"/>
      <point x="589" y="824"/>
      <point x="643" y="788"/>
      <point x="643" y="717" type="curve" smooth="yes"/>
      <point x="643" y="645"/>
      <point x="589" y="610"/>
    </contour>
    <contour>
      <point x="383" y="1013" type="curve" smooth="yes"/>
      <point x="279" y="877" type="line"/>
      <point x="267" y="832" type="line"/>
      <point x="332" y="832" type="line"/>
      <point x="489" y="887" type="line" smooth="yes"/>
      <point x="565" y="915"/>
      <point x="629" y="940"/>
      <point x="629" y="1008" type="curve" smooth="yes"/>
      <point x="629" y="1053"/>
      <point x="593" y="1094"/>
      <point x="520" y="1094" type="curve" smooth="yes"/>
      <point x="455" y="1094"/>
      <point x="416" y="1059"/>
    </contour>
    <component base="dotlessi"/>
  </outline>
</glyph>
<glyph name="horizontalbar" format="2">
  <advance width="1158"/>
  <unicode hex="2015"/>
  <outline>
    <contour>
      <point x="0" y="345" type="line"/>
      <point x="-16" y="285" type="line"/>
      <point x="1157" y="285" type="line"/>
      <point x="1174" y="345" type="line"/>
    </contour>
  </outline>
</glyph>
<glyph name="guilsinglleft" format="2">
  <advance width="548"/>
  <unicode hex="2039"/>
  <outline>
    <contour>
      <point x="272" y="258" type="line"/>
      <point x="556" y="519" type="line"/>
      <point x="393" y="519" type="line"/>
      <point x="84" y="341" type="line"/>
      <point x="55" y="239" type="line"/>
      <point x="254" y="62" type="line"/>
      <point x="416" y="62" type="line"/>
      <point x="287" y="296" type="line"/>
    </contour>
  </outline>
</glyph>
<glyph name="fraction" format="2">
  <advance width="171"/>
  <unicode hex="2044"/>
  <outline>
    <contour>
      <point x="436" y="710" type="line"/>
      <point x="-395" y="0" type="line"/>
      <point x="-266" y="0" type="line"/>
      <point x="566" y="710" type="line"/>
    </contour>
  </outline>
</glyph>
<glyph name="colonmonetary" format="2">
  <advance width="686"/>
  <unicode hex="20A1"/>
  <outline>
    <contour>
      <point x="452" y="790" type="line"/>
      <point x="389" y="666" type="line"/>
      <point x="426" y="647" type="line"/>
      <point x="154" y="98" type="line"/>
      <point x="114" y="138" type="line"/>
      <point x="-11" y="-120" type="line"/>
      <point x="104" y="-120" type="line"/>
      <point x="195" y="58" type="line"/>
      <point x="194" y="71" type="line"/>
      <point x="485" y="655" type="line"/>
      <point x="510" y="680" type="line"/>
      <point x="567" y="790" type="line"/>
    </contour>
    <contour>
      <point x="623" y="790" type="line"/>
      <point x="566" y="680" type="line"/>
      <point x="566" y="662" type="line"/>
      <point x="263" y="51" type="line"/>
      <point x="244" y="41" type="line"/>
      <point x="160" y="-120" type="line"/>
      <point x="275" y="-120" type="line"/>
      <point x="350" y="28" type="line"/>
      <point x="315" y="44" type="line"/>
      <point x="617" y="656" type="line"/>
      <point x="676" y="667" type="line"/>
      <point x="738" y="790" type="line"/>
    </contour>
    <contour>
      <point x="336" y="10" type="curve" smooth="yes"/>
      <point x="494" y="10"/>
      <point x="581" y="83"/>
      <point x="641" y="215" type="curve"/>
      <point x="531" y="251" type="line"/>
      <point x="479" y="153"/>
      <point x="424" y="100"/>
      <point x="334" y="100" type="curve" smooth="yes"/>
      <point x="240" y="100"/>
      <point x="193" y="127"/>
      <point x="193" y="198" type="curve" smooth="yes"/>
      <point x="193" y="256"/>
      <point x="201" y="304"/>
      <point x="228" y="388" type="curve" smooth="yes"/>
      <point x="285" y="564"/>
      <point x="336" y="618"/>
      <point x="484" y="618" type="curve" smooth="yes"/>
      <point x="613" y="618"/>
      <point x="678" y="579"/>
      <point x="690" y="573" type="curve"/>
      <point x="702" y="585"/>
      <point x="637" y="636"/>
      <point x="613" y="645" type="curve"/>
      <point x="553" y="446" type="line"/>
      <point x="697" y="446" type="line"/>
      <point x="763" y="663" type="line"/>
      <point x="714" y="681"/>
      <point x="604" y="700"/>
      <point x="462" y="700" type="curve" smooth="yes"/>
      <point x="129" y="700"/>
      <point x="18" y="449"/>
      <point x="18" y="255" type="curve" smooth="yes"/>
      <point x="18" y="105"/>
      <point x="123" y="10"/>
    </contour>
  </outline>
</glyph>
<glyph name="lira" format="2">
  <advance width="680"/>
  <unicode hex="20A4"/>
  <outline>
    <contour>
      <point x="-64" y="-13" type="line"/>
      <point x="223" y="22"/>
      <point x="377" y="182"/>
      <point x="377" y="352" type="curve" smooth="yes"/>
      <point x="377" y="421"/>
      <point x="367" y="466"/>
      <point x="367" y="522" type="curve" smooth="yes"/>
      <point x="367" y="600"/>
      <point x="383" y="639"/>
      <point x="485" y="639" type="curve" smooth="yes"/>
      <point x="550" y="639"/>
      <point x="603" y="624"/>
      <point x="631" y="601" type="curve"/>
      <point x="619" y="609"/>
      <point x="583" y="678"/>
      <point x="545" y="680" type="curve"/>
      <point x="508" y="564" type="line"/>
      <point x="696" y="564" type="line"/>
      <point x="734" y="687" type="line"/>
      <point x="694" y="706"/>
      <point x="600" y="735"/>
      <point x="453" y="735" type="curve" smooth="yes"/>
      <point x="209" y="735"/>
      <point x="111" y="666"/>
      <point x="111" y="579" type="curve" smooth="yes"/>
      <point x="111" y="509"/>
      <point x="183" y="476"/>
      <point x="183" y="359" type="curve" smooth="yes"/>
      <point x="183" y="233"/>
      <point x="131" y="165"/>
      <point x="-20" y="144" type="curve"/>
    </contour>
    <contour>
      <point x="421" y="-10" type="curve" smooth="yes"/>
      <point x="555" y="-10"/>
      <point x="605" y="70"/>
      <point x="648" y="197" type="curve"/>
      <point x="532" y="230" type="line"/>
      <point x="513" y="188"/>
      <point x="491" y="163"/>
      <point x="427" y="163" type="curve" smooth="yes"/>
      <point x="346" y="163"/>
      <point x="334" y="189"/>
      <point x="315" y="227" type="curve"/>
      <point x="246" y="168" type="line"/>
      <point x="275" y="35"/>
      <point x="300" y="-10"/>
    </contour>
    <contour>
      <point x="26" y="362" type="line"/>
      <point x="4" y="284" type="line"/>
      <point x="520" y="284" type="line"/>
      <point x="543" y="362" type="line"/>
    </contour>
    <contour>
      <point x="71" y="504" type="line"/>
      <point x="47" y="426" type="line"/>
      <point x="564" y="426" type="line"/>
      <point x="588" y="504" type="line"/>
    </contour>
  </outline>
</glyph>
<glyph name="naira" format="2">
  <advance width="680"/>
  <unicode hex="20A6"/>
  <outline>
    <contour>
      <point x="-70" y="0" type="line"/>
      <point x="152" y="0" type="line"/>
      <point x="179" y="95" type="line"/>
      <point x="169" y="95" type="line" smooth="yes"/>
      <point x="138" y="95"/>
      <point x="122" y="101"/>
      <point x="124" y="108" type="curve" smooth="yes"/>
      <point x="304" y="696" type="line"/>
      <point x="294" y="698" type="line"/>
      <point x="257" y="0" type="line"/>
      <point x="476" y="0" type="line"/>
      <point x="653" y="574" type="line" smooth="yes"/>
      <point x="662" y="603"/>
      <point x="690" y="615"/>
      <point x="731" y="615" type="curve" smooth="yes"/>
      <point x="739" y="615" type="line"/>
      <point x="767" y="710" type="line"/>
      <point x="549" y="710" type="line"/>
      <point x="521" y="615" type="line"/>
      <point x="530" y="615" type="line" smooth="yes"/>
      <point x="564" y="615"/>
      <point x="575" y="609"/>
      <point x="572" y="602" type="curve" smooth="yes"/>
      <point x="398" y="35" type="line"/>
      <point x="409" y="18" type="line"/>
      <point x="458" y="710" type="line"/>
      <point x="148" y="710" type="line"/>
      <point x="120" y="615" type="line"/>
      <point x="128" y="615" type="line" smooth="yes"/>
      <point x="169" y="615"/>
      <point x="190" y="608"/>
      <point x="181" y="579" type="curve" smooth="yes"/>
      <point x="43" y="136" type="line" smooth="yes"/>
      <point x="34" y="107"/>
      <point x="6" y="95"/>
      <point x="-35" y="95" type="curve" smooth="yes"/>
      <point x="-43" y="95" type="line"/>
    </contour>
    <contour>
      <point x="226" y="523" type="line"/>
      <point x="73" y="523" type="line"/>
      <point x="42" y="419" type="line"/>
      <point x="194" y="419" type="line"/>
    </contour>
    <contour>
      <point x="406" y="510" type="line"/>
      <point x="533" y="432" type="line"/>
      <point x="545" y="419" type="line"/>
      <point x="693" y="419" type="line"/>
      <point x="723" y="523" type="line"/>
      <point x="411" y="523" type="line"/>
    </contour>
    <contour>
      <point x="466" y="183" type="line"/>
      <point x="622" y="183" type="line"/>
      <point x="653" y="287" type="line"/>
      <point x="499" y="287" type="line"/>
    </contour>
    <contour>
      <point x="310" y="197" type="line"/>
      <point x="156" y="274" type="line"/>
      <point x="159" y="287" type="line"/>
      <point x="2" y="287" type="line"/>
      <point x="-28" y="183" type="line"/>
      <point x="305" y="183" type="line"/>
    </contour>
  </outline>
</glyph>
<glyph name="peseta" format="2">
  <advance width="680"/>
  <unicode hex="20A7"/>
  <outline>
    <contour>
      <point x="-100" y="0" type="line"/>
      <point x="161" y="0" type="line"/>
      <point x="188" y="95" type="line"/>
      <point x="175" y="95" type="line" smooth="yes"/>
      <point x="153" y="95"/>
      <point x="123" y="98"/>
      <point x="125" y="105" type="curve" smooth="yes"/>
      <point x="164" y="222" type="line"/>
      <point x="193" y="222" type="line" smooth="yes"/>
      <point x="358" y="222"/>
      <point x="467" y="376"/>
      <point x="467" y="574" type="curve" smooth="yes"/>
      <point x="467" y="672"/>
      <point x="409" y="710"/>
      <point x="274" y="710" type="curve" smooth="yes"/>
      <point x="117" y="710" type="line"/>
      <point x="90" y="615" type="line"/>
      <point x="96" y="615" type="line" smooth="yes"/>
      <point x="123" y="615"/>
      <point x="128" y="608"/>
      <point x="120" y="579" type="curve" smooth="yes"/>
      <point x="-20" y="131" type="line" smooth="yes"/>
      <point x="-28" y="102"/>
      <point x="-39" y="95"/>
      <point x="-66" y="95" type="curve" smooth="yes"/>
      <point x="-72" y="95" type="line"/>
    </contour>
    <contour>
      <point x="290" y="615" type="line" smooth="yes"/>
      <point x="324" y="615"/>
      <point x="335" y="610"/>
      <point x="335" y="588" type="curve" smooth="yes"/>
      <point x="335" y="569"/>
      <point x="330" y="542"/>
      <point x="313" y="484" type="curve" smooth="yes"/>
      <point x="276" y="362"/>
      <point x="256" y="317"/>
      <point x="213" y="317" type="curve" smooth="yes"/>
      <point x="192" y="317" type="line"/>
      <point x="284" y="615" type="line"/>
    </contour>
    <contour>
      <point x="513" y="539" type="line"/>
      <point x="387" y="134" type="line" smooth="yes"/>
      <point x="378" y="101"/>
      <point x="371" y="75"/>
      <point x="371" y="55" type="curve"/>
      <point x="371" y="18"/>
      <point x="399" y="0"/>
      <point x="453" y="0" type="curve" smooth="yes"/>
      <point x="513" y="0"/>
      <point x="556" y="0"/>
      <point x="579" y="0" type="curve"/>
      <point x="604" y="87" type="line"/>
      <point x="600" y="87"/>
      <point x="583" y="87"/>
      <point x="568" y="87" type="curve" smooth="yes"/>
      <point x="552" y="87"/>
      <point x="542" y="91"/>
      <point x="542" y="103" type="curve"/>
      <point x="542" y="108"/>
      <point x="545" y="117"/>
      <point x="550" y="131" type="curve" smooth="yes"/>
      <point x="727" y="710" type="line"/>
      <point x="584" y="710" type="line"/>
      <point x="554" y="614" type="line" smooth="yes"/>
      <point x="536" y="553"/>
      <point x="515" y="542"/>
      <point x="471" y="542" type="curve" smooth="yes"/>
      <point x="443" y="542" type="line"/>
      <point x="423" y="471" type="line"/>
      <point x="719" y="471" type="line"/>
      <point x="743" y="555" type="line"/>
      <point x="579" y="555" type="line"/>
    </contour>
  </outline>
</glyph>
<glyph name="Euro" format="2">
  <advance width="680"/>
  <unicode hex="20AC"/>
  <outline>
    <contour>
      <point x="540" y="735" type="curve" smooth="yes"/>
      <point x="222" y="735"/>
      <point x="82" y="507"/>
      <point x="82" y="202" type="curve" smooth="yes"/>
      <point x="82" y="46"/>
      <point x="160" y="-25"/>
      <point x="349" y="-25" type="curve" smooth="yes"/>
      <point x="501" y="-25"/>
      <point x="576" y="30"/>
      <point x="633" y="141" type="curve"/>
      <point x="528" y="183" type="line"/>
      <point x="492" y="126"/>
      <point x="458" y="83"/>
      <point x="398" y="83" type="curve" smooth="yes"/>
      <point x="347" y="83"/>
      <point x="324" y="96"/>
      <point x="324" y="144" type="curve" smooth="yes"/>
      <point x="324" y="184"/>
      <point x="334" y="250"/>
      <point x="363" y="361" type="curve" smooth="yes"/>
      <point x="422" y="577"/>
      <point x="446" y="638"/>
      <point x="544" y="638" type="curve" smooth="yes"/>
      <point x="590" y="638"/>
      <point x="626" y="626"/>
      <point x="636" y="611" type="curve"/>
      <point x="662" y="616"/>
      <point x="594" y="677"/>
      <point x="571" y="671" type="curve"/>
      <point x="534" y="548" type="line"/>
      <point x="717" y="548" type="line"/>
      <point x="762" y="698" type="line"/>
      <point x="735" y="710"/>
      <point x="671" y="735"/>
    </contour>
    <contour>
      <point x="61" y="474" type="line"/>
      <point x="35" y="384" type="line"/>
      <point x="550" y="384" type="line"/>
      <point x="577" y="474" type="line"/>
    </contour>
    <contour>
      <point x="12" y="312" type="line"/>
      <point x="-15" y="221" type="line"/>
      <point x="468" y="221" type="line"/>
      <point x="494" y="312" type="line"/>
    </contour>
  </outline>
</glyph>
<glyph name="peso" format="2">
  <advance width="680"/>
  <unicode hex="20B1"/>
  <outline>
    <contour>
      <point x="73" y="501" type="line"/>
      <point x="46" y="409" type="line"/>
      <point x="175" y="409" type="line"/>
      <point x="213" y="428" type="line"/>
      <point x="537" y="428" type="line"/>
      <point x="552" y="409" type="line"/>
      <point x="703" y="409" type="line"/>
      <point x="730" y="501" type="line"/>
      <point x="593" y="501" type="line"/>
      <point x="545" y="482" type="line"/>
      <point x="225" y="482" type="line"/>
      <point x="206" y="501" type="line"/>
    </contour>
    <contour>
      <point x="-81" y="0" type="line"/>
      <point x="261" y="0" type="line"/>
      <point x="289" y="95" type="line"/>
      <point x="280" y="95" type="line" smooth="yes"/>
      <point x="255" y="95"/>
      <point x="222" y="98"/>
      <point x="225" y="105" type="curve" smooth="yes"/>
      <point x="255" y="197" type="line"/>
      <point x="292" y="197" type="line" smooth="yes"/>
      <point x="518" y="197"/>
      <point x="649" y="351"/>
      <point x="649" y="523" type="curve" smooth="yes"/>
      <point x="649" y="641"/>
      <point x="561" y="710"/>
      <point x="397" y="710" type="curve" smooth="yes"/>
      <point x="138" y="710" type="line"/>
      <point x="110" y="615" type="line"/>
      <point x="123" y="615" type="line" smooth="yes"/>
      <point x="150" y="615"/>
      <point x="165" y="608"/>
      <point x="157" y="579" type="curve" smooth="yes"/>
      <point x="17" y="131" type="line" smooth="yes"/>
      <point x="7" y="102"/>
      <point x="-13" y="95"/>
      <point x="-40" y="95" type="curve" smooth="yes"/>
      <point x="-53" y="95" type="line"/>
    </contour>
    <contour>
      <point x="397" y="624" type="line" smooth="yes"/>
      <point x="436" y="624"/>
      <point x="453" y="615"/>
      <point x="453" y="584" type="curve" smooth="yes"/>
      <point x="453" y="556"/>
      <point x="442" y="511"/>
      <point x="425" y="446" type="curve" smooth="yes"/>
      <point x="382" y="298"/>
      <point x="365" y="283"/>
      <point x="297" y="283" type="curve" smooth="yes"/>
      <point x="281" y="283" type="line"/>
      <point x="386" y="624" type="line"/>
    </contour>
  </outline>
</glyph>
<glyph name="cedi" format="2">
  <advance width="680"/>
  <unicode hex="20B5"/>
  <outline>
    <contour>
      <point x="467" y="618" type="curve" smooth="yes"/>
      <point x="542" y="618"/>
      <point x="602" y="596"/>
      <point x="626" y="576" type="curve"/>
      <point x="635" y="587"/>
      <point x="597" y="640"/>
      <point x="566" y="649" type="curve"/>
      <point x="512" y="467" type="line"/>
      <point x="694" y="467" type="line"/>
      <point x="745" y="628" type="line"/>
      <point x="714" y="649"/>
      <point x="621" y="700"/>
      <point x="454" y="700" type="curve" smooth="yes"/>
      <point x="135" y="700"/>
      <point x="19" y="478"/>
      <point x="19" y="270" type="curve" smooth="yes"/>
      <point x="19" y="89"/>
      <point x="149" y="10"/>
      <point x="331" y="10" type="curve" smooth="yes"/>
      <point x="480" y="10"/>
      <point x="571" y="76"/>
      <point x="638" y="215" type="curve"/>
      <point x="536" y="251" type="line"/>
      <point x="480" y="144"/>
      <point x="432" y="103"/>
      <point x="354" y="103" type="curve" smooth="yes"/>
      <point x="268" y="103"/>
      <point x="233" y="130"/>
      <point x="233" y="189" type="curve" smooth="yes"/>
      <point x="233" y="230"/>
      <point x="250" y="291"/>
      <point x="276" y="378" type="curve" smooth="yes"/>
      <point x="331" y="563"/>
      <point x="353" y="618"/>
    </contour>
    <contour>
      <point x="448" y="790" type="line"/>
      <point x="415" y="678" type="line"/>
      <point x="454" y="669" type="line"/>
      <point x="265" y="51" type="line"/>
      <point x="219" y="37" type="line"/>
      <point x="171" y="-120" type="line"/>
      <point x="306" y="-120" type="line"/>
      <point x="354" y="39" type="line"/>
      <point x="318" y="47" type="line"/>
      <point x="510" y="672" type="line"/>
      <point x="550" y="680" type="line"/>
      <point x="583" y="790" type="line"/>
    </contour>
  </outline>
</glyph>
<glyph name="uni20B8" format="2">
  <advance width="680"/>
  <unicode hex="20B8"/>
  <outline>
    <contour>
      <point x="166" y="137" type="line" smooth="yes"/>
      <point x="155" y="108"/>
      <point x="123" y="101"/>
      <point x="86" y="101" type="curve" smooth="yes"/>
      <point x="64" y="101" type="line"/>
      <point x="35" y="0" type="line"/>
      <point x="437" y="0" type="line"/>
      <point x="466" y="101" type="line"/>
      <point x="443" y="101" type="line" smooth="yes"/>
      <point x="407" y="101"/>
      <point x="377" y="108"/>
      <point x="386" y="137" type="curve" smooth="yes"/>
      <point x="485" y="454" type="line"/>
      <point x="494" y="454" type="line" smooth="yes"/>
      <point x="563" y="454"/>
      <point x="567" y="437"/>
      <point x="560" y="401" type="curve" smooth="yes"/>
      <point x="536" y="292" type="line"/>
      <point x="642" y="292" type="line"/>
      <point x="721" y="547" type="line"/>
      <point x="83" y="547" type="line"/>
      <point x="5" y="292" type="line"/>
      <point x="111" y="292" type="line"/>
      <point x="162" y="401" type="line" smooth="yes"/>
      <point x="177" y="437"/>
      <point x="191" y="454"/>
      <point x="258" y="454" type="curve" smooth="yes"/>
      <point x="264" y="454" type="line"/>
    </contour>
    <contour>
      <point x="140" y="751" type="line"/>
      <point x="111" y="649" type="line"/>
      <point x="756" y="649" type="line"/>
      <point x="786" y="751" type="line"/>
    </contour>
  </outline>
</glyph>
<glyph name="numero" format="2">
  <advance width="1670"/>
  <unicode hex="2116"/>
  <outline>
    <contour>
      <point x="1066" y="210" type="line"/>
      <point x="1580" y="210" type="line"/>
      <point x="1549" y="104" type="line"/>
      <point x="1034" y="104" type="line"/>
    </contour>
    <component base="N"/>
    <component base="ordmasculine" xOffset="945"/>
  </outline>
</glyph>
<glyph name="trademark" format="2">
  <advance width="1703"/>
  <unicode hex="2122"/>
  <outline>
    <contour>
      <point x="173" y="238" type="line"/>
      <point x="503" y="238" type="line"/>
      <point x="526" y="317" type="line"/>
      <point x="508" y="317" type="line" smooth="yes"/>
      <point x="474" y="317"/>
      <point x="457" y="322"/>
      <point x="461" y="337" type="curve" smooth="yes"/>
      <point x="549" y="626" type="line"/>
      <point x="585" y="626" type="line" smooth="yes"/>
      <point x="652" y="626"/>
      <point x="660" y="615"/>
      <point x="657" y="595" type="curve" smooth="yes"/>
      <point x="639" y="510" type="line"/>
      <point x="739" y="510" type="line"/>
      <point x="798" y="710" type="line"/>
      <point x="161" y="710" type="line"/>
      <point x="102" y="510" type="line"/>
      <point x="201" y="510" type="line"/>
      <point x="236" y="595" type="line" smooth="yes"/>
      <point x="245" y="615"/>
      <point x="261" y="626"/>
      <point x="328" y="626" type="curve" smooth="yes"/>
      <point x="361" y="626" type="line"/>
      <point x="273" y="337" type="line" smooth="yes"/>
      <point x="268" y="322"/>
      <point x="248" y="317"/>
      <point x="214" y="317" type="curve" smooth="yes"/>
      <point x="196" y="317" type="line"/>
    </contour>
    <contour>
      <point x="733" y="238" type="line"/>
      <point x="947" y="238" type="line"/>
      <point x="970" y="317" type="line"/>
      <point x="967" y="317" type="line" smooth="yes"/>
      <point x="950" y="317"/>
      <point x="924" y="320"/>
      <point x="926" y="323" type="curve" smooth="yes"/>
      <point x="1040" y="705" type="line"/>
      <point x="1034" y="706" type="line"/>
      <point x="1052" y="236" type="line"/>
      <point x="1190" y="236" type="line"/>
      <point x="1485" y="706" type="line"/>
      <point x="1478" y="704" type="line"/>
      <point x="1363" y="323" type="line" smooth="yes"/>
      <point x="1362" y="320"/>
      <point x="1335" y="317"/>
      <point x="1317" y="317" type="curve" smooth="yes"/>
      <point x="1311" y="317" type="line"/>
      <point x="1288" y="238" type="line"/>
      <point x="1578" y="238" type="line"/>
      <point x="1600" y="317" type="line"/>
      <point x="1587" y="317" type="line" smooth="yes"/>
      <point x="1555" y="317"/>
      <point x="1538" y="322"/>
      <point x="1543" y="337" type="curve" smooth="yes"/>
      <point x="1627" y="609" type="line" smooth="yes"/>
      <point x="1631" y="626"/>
      <point x="1651" y="630"/>
      <point x="1683" y="630" type="curve" smooth="yes"/>
      <point x="1696" y="630" type="line"/>
      <point x="1719" y="710" type="line"/>
      <point x="1392" y="710" type="line"/>
      <point x="1133" y="283" type="line"/>
      <point x="1207" y="291" type="line"/>
      <point x="1200" y="710" type="line"/>
      <point x="874" y="710" type="line"/>
      <point x="851" y="630" type="line"/>
      <point x="863" y="630" type="line" smooth="yes"/>
      <point x="895" y="630"/>
      <point x="914" y="626"/>
      <point x="909" y="609" type="curve" smooth="yes"/>
      <point x="826" y="337" type="line" smooth="yes"/>
      <point x="822" y="322"/>
      <point x="799" y="317"/>
      <point x="767" y="317" type="curve" smooth="yes"/>
      <point x="755" y="317" type="line"/>
    </contour>
  </outline>
</glyph>
<glyph name="partialdiff" format="2">
  <advance width="740"/>
  <unicode hex="2202"/>
  <outline>
    <contour>
      <point x="340" y="-12" type="curve" smooth="yes"/>
      <point x="589" y="-12"/>
      <point x="710" y="158"/>
      <point x="710" y="421" type="curve" smooth="yes"/>
      <point x="710" y="671"/>
      <point x="553" y="748"/>
      <point x="377" y="748" type="curve" smooth="yes"/>
      <point x="287" y="748"/>
      <point x="217" y="730"/>
      <point x="144" y="694" type="curve"/>
      <point x="191" y="618" type="line"/>
      <point x="237" y="639"/>
      <point x="284" y="655"/>
      <point x="330" y="655" type="curve" smooth="yes"/>
      <point x="406" y="655"/>
      <point x="465" y="633"/>
      <point x="465" y="477" type="curve" smooth="yes"/>
      <point x="465" y="264"/>
      <point x="443" y="78"/>
      <point x="350" y="78" type="curve" smooth="yes"/>
      <point x="299" y="78"/>
      <point x="279" y="101"/>
      <point x="279" y="200" type="curve" smooth="yes"/>
      <point x="279" y="328"/>
      <point x="315" y="428"/>
      <point x="409" y="428" type="curve" smooth="yes"/>
      <point x="441" y="428"/>
      <point x="467" y="416"/>
      <point x="483" y="394" type="curve"/>
      <point x="503" y="468" type="line"/>
      <point x="485" y="488"/>
      <point x="448" y="518"/>
      <point x="345" y="518" type="curve" smooth="yes"/>
      <point x="143" y="518"/>
      <point x="30" y="393"/>
      <point x="30" y="216" type="curve" smooth="yes"/>
      <point x="30" y="82"/>
      <point x="142" y="-12"/>
    </contour>
  </outline>
</glyph>
<glyph name="uni25B8" format="2">
  <advance width="702"/>
  <unicode hex="25B8"/>
  <outline>
    <contour>
      <point x="159" y="10" type="line"/>
      <point x="616" y="277" type="line"/>
      <point x="159" y="545" type="line"/>
    </contour>
  </outline>
</glyph>
<glyph name="four.den" format="2">
  <advance width="593"/>
  <unicode hex="E406"/>
  <outline>
    <contour>
      <point x="-35" y="90" type="line"/>
      <point x="519" y="90" type="line"/>
      <point x="551" y="201" type="line"/>
      <point x="34" y="201" type="line"/>
      <point x="40" y="152" type="line"/>
      <point x="367" y="412" type="line"/>
      <point x="350" y="426" type="line"/>
      <point x="277" y="426" type="line"/>
      <point x="-1" y="210" type="line"/>
    </contour>
    <contour>
      <point x="395" y="0" type="line"/>
      <point x="525" y="426" type="line"/>
      <point x="332" y="426" type="line"/>
      <point x="337" y="406" type="line"/>
      <point x="214" y="0" type="line"/>
    </contour>
  </outline>
</glyph>
<glyph name="acute.ucpl" format="2">
  <advance width="613"/>
  <anchor x="255" y="694" name="_top"/>
  <outline>
    <contour>
      <point x="251" y="927" type="curve" smooth="yes"/>
      <point x="213" y="823" type="line"/>
      <point x="212" y="778" type="line"/>
      <point x="276" y="778" type="line"/>
      <point x="394" y="822" type="line" smooth="yes"/>
      <point x="456" y="847"/>
      <point x="501" y="878"/>
      <point x="501" y="937" type="curve" smooth="yes"/>
      <point x="501" y="988"/>
      <point x="458" y="1030"/>
      <point x="384" y="1030" type="curve" smooth="yes"/>
      <point x="307" y="1030"/>
      <point x="270" y="987"/>
    </contour>
  </outline>
</glyph>
<glyph name="backslash.uc" format="2">
  <advance width="777"/>
  <outline>
    <contour>
      <point x="287" y="760" type="line"/>
      <point x="641" y="-60" type="line"/>
      <point x="490" y="-60" type="line"/>
      <point x="136" y="760" type="line"/>
    </contour>
  </outline>
</glyph>
<glyph name="blackrightpointingtriangle" format="2">
  <advance width="702"/>
  <outline>
    <contour>
      <point x="159" y="10" type="line"/>
      <point x="616" y="277" type="line"/>
      <point x="159" y="545" type="line"/>
    </contour>
  </outline>
</glyph>
<glyph name="blackuppointingtriangle" format="2">
  <advance width="791"/>
  <outline>
    <contour>
      <point x="67" y="91" type="line"/>
      <point x="723" y="91" type="line"/>
      <point x="395" y="464" type="line"/>
    </contour>
  </outline>
</glyph>
<glyph name="breve_grave.uc" format="2">
  <advance width="615"/>
  <anchor x="292" y="744" name="_top"/>
  <outline>
    <contour>
      <point x="378" y="1189" type="curve" smooth="yes"/>
      <point x="461" y="1079" type="line"/>
      <point x="456" y="1035" type="line"/>
      <point x="390" y="1035" type="line"/>
      <point x="248" y="1059" type="line" smooth="yes"/>
      <point x="158" y="1079"/>
      <point x="107" y="1112"/>
      <point x="107" y="1173" type="curve" smooth="yes"/>
      <point x="107" y="1223"/>
      <point x="148" y="1273"/>
      <point x="230" y="1273" type="curve" smooth="yes"/>
      <point x="308" y="1273"/>
      <point x="343" y="1239"/>
    </contour>
    <component base="breve.uc"/>
  </outline>
</glyph>
<glyph name="breve_tilde" format="2">
  <advance width="613"/>
  <anchor x="320" y="524" name="_top"/>
  <outline>
    <contour>
      <point x="470" y="886" type="curve" smooth="yes"/>
      <point x="560" y="886"/>
      <point x="623" y="926"/>
      <point x="672" y="1088" type="curve"/>
      <point x="564" y="1114" type="line"/>
      <point x="537" y="1052"/>
      <point x="521" y="1020"/>
      <point x="487" y="1020" type="curve" smooth="yes"/>
      <point x="426" y="1020"/>
      <point x="426" y="1107"/>
      <point x="297" y="1107" type="curve" smooth="yes"/>
      <point x="201" y="1107"/>
      <point x="148" y="1061"/>
      <point x="92" y="907" type="curve"/>
      <point x="200" y="882" type="line"/>
      <point x="228" y="939"/>
      <point x="241" y="974"/>
      <point x="274" y="974" type="curve" smooth="yes"/>
      <point x="334" y="974"/>
      <point x="333" y="886"/>
    </contour>
    <contour>
      <point x="322" y="621" type="curve" smooth="yes"/>
      <point x="481" y="621"/>
      <point x="589" y="660"/>
      <point x="597" y="832" type="curve"/>
      <point x="470" y="832" type="line"/>
      <point x="452" y="774"/>
      <point x="431" y="763"/>
      <point x="325" y="763" type="curve" smooth="yes"/>
      <point x="231" y="763"/>
      <point x="218" y="781"/>
      <point x="224" y="832" type="curve"/>
      <point x="96" y="832" type="line"/>
      <point x="89" y="812"/>
      <point x="86" y="787"/>
      <point x="86" y="766" type="curve" smooth="yes"/>
      <point x="86" y="670"/>
      <point x="163" y="621"/>
    </contour>
  </outline>
</glyph>
<glyph name="circumflex_grave" format="2">
  <advance width="619"/>
  <anchor x="312" y="564" name="_top"/>
  <outline>
    <contour>
      <point x="716" y="906" type="curve" smooth="yes"/>
      <point x="749" y="812" type="line"/>
      <point x="736" y="769" type="line"/>
      <point x="671" y="769" type="line"/>
      <point x="558" y="844" type="line" smooth="yes"/>
      <point x="518" y="872"/>
      <point x="480" y="905"/>
      <point x="480" y="950" type="curve" smooth="yes"/>
      <point x="480" y="1000"/>
      <point x="523" y="1036"/>
      <point x="584" y="1036" type="curve" smooth="yes"/>
      <point x="667" y="1036"/>
      <point x="691" y="985"/>
    </contour>
    <component base="circumflex"/>
  </outline>
</glyph>
<glyph name="circumflex_tilde" format="2">
  <advance width="613"/>
  <anchor x="305" y="551" name="_top"/>
  <outline>
    <contour>
      <point x="419" y="832" type="line"/>
      <point x="551" y="671" type="line"/>
      <point x="536" y="618" type="line"/>
      <point x="460" y="618" type="line"/>
      <point x="269" y="696" type="line"/>
      <point x="329" y="698" type="line"/>
      <point x="96" y="618" type="line"/>
      <point x="3" y="618" type="line"/>
      <point x="18" y="671" type="line"/>
      <point x="247" y="832" type="line"/>
    </contour>
    <contour>
      <point x="274" y="1113" type="curve" smooth="yes"/>
      <point x="179" y="1113"/>
      <point x="126" y="1068"/>
      <point x="70" y="914" type="curve"/>
      <point x="177" y="888" type="line"/>
      <point x="205" y="946"/>
      <point x="218" y="981"/>
      <point x="252" y="981" type="curve" smooth="yes"/>
      <point x="311" y="981"/>
      <point x="310" y="892"/>
      <point x="448" y="892" type="curve" smooth="yes"/>
      <point x="538" y="892"/>
      <point x="600" y="933"/>
      <point x="649" y="1095" type="curve"/>
      <point x="541" y="1120" type="line"/>
      <point x="514" y="1059"/>
      <point x="498" y="1027"/>
      <point x="464" y="1027" type="curve" smooth="yes"/>
      <point x="403" y="1027"/>
      <point x="404" y="1113"/>
    </contour>
  </outline>
</glyph>
<glyph name="dblgrave" format="2">
  <advance width="613"/>
  <anchor x="297" y="539" name="_top"/>
  <outline>
    <contour>
      <point x="566" y="790" type="line" smooth="yes"/>
      <point x="557" y="859"/>
      <point x="521" y="892"/>
      <point x="457" y="892" type="curve" smooth="yes"/>
      <point x="387" y="892"/>
      <point x="350" y="856"/>
      <point x="350" y="807" type="curve" smooth="yes"/>
      <point x="350" y="761"/>
      <point x="375" y="734"/>
      <point x="435" y="689" type="curve" smooth="yes"/>
      <point x="519" y="630" type="line"/>
      <point x="583" y="630" type="line"/>
      <point x="583" y="675" type="line"/>
    </contour>
    <contour>
      <point x="295" y="790" type="line" smooth="yes"/>
      <point x="287" y="859"/>
      <point x="251" y="892"/>
      <point x="186" y="892" type="curve" smooth="yes"/>
      <point x="116" y="892"/>
      <point x="79" y="856"/>
      <point x="79" y="807" type="curve" smooth="yes"/>
      <point x="79" y="761"/>
      <point x="104" y="734"/>
      <point x="164" y="689" type="curve" smooth="yes"/>
      <point x="249" y="630" type="line"/>
      <point x="312" y="630" type="line"/>
      <point x="311" y="675" type="line"/>
    </contour>
  </outline>
</glyph>
<glyph name="dieresis.uc" format="2">
  <advance width="613"/>
  <anchor x="312" y="694" name="_top"/>
  <outline>
    <contour>
      <point x="151" y="784" type="curve" smooth="yes"/>
      <point x="243" y="784"/>
      <point x="296" y="818"/>
      <point x="296" y="890" type="curve" smooth="yes"/>
      <point x="296" y="962"/>
      <point x="243" y="997"/>
      <point x="151" y="997" type="curve" smooth="yes"/>
      <point x="57" y="997"/>
      <point x="3" y="962"/>
      <point x="3" y="890" type="curve" smooth="yes"/>
      <point x="3" y="817"/>
      <point x="57" y="784"/>
    </contour>
    <contour>
      <point x="526" y="784" type="curve" smooth="yes"/>
      <point x="618" y="784"/>
      <point x="672" y="818"/>
      <point x="672" y="890" type="curve" smooth="yes"/>
      <point x="672" y="962"/>
      <point x="618" y="997"/>
      <point x="526" y="997" type="curve" smooth="yes"/>
      <point x="433" y="997"/>
      <point x="379" y="962"/>
      <point x="379" y="890" type="curve" smooth="yes"/>
      <point x="379" y="817"/>
      <point x="433" y="784"/>
    </contour>
  </outline>
</glyph>
<glyph name="dollar.altprop" format="2">
  <advance width="810"/>
  <outline>
    <contour>
      <point x="350" y="14" type="curve" smooth="yes"/>
      <point x="578" y="14"/>
      <point x="742" y="79"/>
      <point x="742" y="262" type="curve" smooth="yes"/>
      <point x="742" y="384"/>
      <point x="629" y="415"/>
      <point x="462" y="465" type="curve" smooth="yes"/>
      <point x="365" y="492"/>
      <point x="331" y="501"/>
      <point x="331" y="539" type="curve" smooth="yes"/>
      <point x="331" y="586"/>
      <point x="379" y="602"/>
      <point x="472" y="602" type="curve" smooth="yes"/>
      <point x="576" y="602"/>
      <point x="652" y="584"/>
      <point x="692" y="559" type="curve"/>
      <point x="692" y="570"/>
      <point x="636" y="623"/>
      <point x="595" y="622" type="curve"/>
      <point x="560" y="512" type="line"/>
      <point x="759" y="512" type="line"/>
      <point x="798" y="638" type="line"/>
      <point x="749" y="669"/>
      <point x="632" y="697"/>
      <point x="474" y="697" type="curve" smooth="yes"/>
      <point x="206" y="697"/>
      <point x="99" y="597"/>
      <point x="99" y="467" type="curve" smooth="yes"/>
      <point x="99" y="343"/>
      <point x="177" y="310"/>
      <point x="325" y="265" type="curve" smooth="yes"/>
      <point x="443" y="231"/>
      <point x="495" y="223"/>
      <point x="495" y="179" type="curve" smooth="yes"/>
      <point x="495" y="123"/>
      <point x="432" y="110"/>
      <point x="345" y="110" type="curve" smooth="yes"/>
      <point x="239" y="110"/>
      <point x="152" y="131"/>
      <point x="97" y="157" type="curve"/>
      <point x="97" y="137"/>
      <point x="177" y="92"/>
      <point x="187" y="92" type="curve"/>
      <point x="225" y="214" type="line"/>
      <point x="22" y="214" type="line"/>
      <point x="-22" y="73" type="line"/>
      <point x="40" y="49"/>
      <point x="174" y="14"/>
    </contour>
    <contour>
      <point x="200" y="-117" type="line"/>
      <point x="339" y="-117" type="line"/>
      <point x="393" y="63" type="line"/>
      <point x="254" y="64" type="line"/>
    </contour>
    <contour>
      <point x="435" y="646" type="line"/>
      <point x="577" y="651" type="line"/>
      <point x="617" y="787" type="line"/>
      <point x="478" y="787" type="line"/>
    </contour>
  </outline>
</glyph>
<glyph name="five.oldprop" format="2">
  <advance width="722"/>
  <outline>
    <contour>
      <point x="-34" y="78" type="curve"/>
      <point x="101" y="116" type="line"/>
      <point x="128" y="63"/>
      <point x="157" y="21"/>
      <point x="255" y="21" type="curve" smooth="yes"/>
      <point x="381" y="21"/>
      <point x="412" y="132"/>
      <point x="412" y="208" type="curve" smooth="yes"/>
      <point x="412" y="264"/>
      <point x="384" y="287"/>
      <point x="310" y="287" type="curve" smooth="yes"/>
      <point x="249" y="287"/>
      <point x="212" y="264"/>
      <point x="172" y="218" type="curve"/>
      <point x="67" y="218" type="line"/>
      <point x="197" y="645" type="line"/>
      <point x="716" y="645" type="line"/>
      <point x="652" y="482" type="line"/>
      <point x="245" y="482" type="line"/>
      <point x="311" y="625" type="line"/>
      <point x="211" y="296" type="line"/>
      <point x="180" y="275" type="line"/>
      <point x="225" y="341"/>
      <point x="292" y="391"/>
      <point x="412" y="391" type="curve" smooth="yes"/>
      <point x="559" y="391"/>
      <point x="661" y="332"/>
      <point x="661" y="200" type="curve" smooth="yes"/>
      <point x="661" y="35"/>
      <point x="528" y="-84"/>
      <point x="271" y="-84" type="curve" smooth="yes"/>
      <point x="89" y="-84"/>
      <point x="5" y="-25"/>
    </contour>
  </outline>
</glyph>
<glyph name="four.lintab" format="2">
  <advance width="680"/>
  <outline>
    <contour>
      <point x="-24" y="183" type="line"/>
      <point x="613" y="183" type="line"/>
      <point x="657" y="338" type="line"/>
      <point x="103" y="338" type="line"/>
      <point x="70" y="262" type="line"/>
      <point x="453" y="657" type="line"/>
      <point x="467" y="710" type="line"/>
      <point x="373" y="710" type="line"/>
      <point x="24" y="358" type="line"/>
    </contour>
    <contour>
      <point x="496" y="137" type="curve" smooth="yes"/>
      <point x="673" y="710" type="line"/>
      <point x="437" y="710" type="line"/>
      <point x="431" y="684" type="line"/>
      <point x="262" y="137" type="line" smooth="yes"/>
      <point x="253" y="108"/>
      <point x="220" y="101"/>
      <point x="183" y="101" type="curve" smooth="yes"/>
      <point x="167" y="101" type="line"/>
      <point x="137" y="0" type="line"/>
      <point x="539" y="0" type="line"/>
      <point x="569" y="101" type="line"/>
      <point x="552" y="101" type="line" smooth="yes"/>
      <point x="517" y="101"/>
      <point x="487" y="108"/>
    </contour>
  </outline>
</glyph>
<glyph name="heartsuitwhite" format="2">
  <advance width="1110"/>
  <outline>
    <contour>
      <point x="237" y="525" type="curve" smooth="yes"/>
      <point x="237" y="587"/>
      <point x="279" y="634"/>
      <point x="367" y="634" type="curve" smooth="yes"/>
      <point x="487" y="634"/>
      <point x="560" y="518"/>
      <point x="598" y="441" type="curve"/>
      <point x="610" y="441" type="line"/>
      <point x="648" y="518"/>
      <point x="720" y="634"/>
      <point x="841" y="634" type="curve" smooth="yes"/>
      <point x="928" y="634"/>
      <point x="971" y="587"/>
      <point x="971" y="525" type="curve" smooth="yes"/>
      <point x="971" y="449"/>
      <point x="920" y="403"/>
      <point x="842" y="325" type="curve" smooth="yes"/>
      <point x="610" y="93" type="line"/>
      <point x="598" y="93" type="line"/>
      <point x="366" y="325" type="line" smooth="yes"/>
      <point x="287" y="403"/>
      <point x="237" y="449"/>
    </contour>
    <contour>
      <point x="135" y="535" type="curve" smooth="yes"/>
      <point x="135" y="432"/>
      <point x="193" y="372"/>
      <point x="299" y="271" type="curve" smooth="yes"/>
      <point x="589" y="-10" type="line"/>
      <point x="618" y="-10" type="line"/>
      <point x="909" y="271" type="line" smooth="yes"/>
      <point x="1014" y="372"/>
      <point x="1073" y="432"/>
      <point x="1073" y="535" type="curve" smooth="yes"/>
      <point x="1073" y="632"/>
      <point x="989" y="710"/>
      <point x="848" y="710" type="curve" smooth="yes"/>
      <point x="734" y="710"/>
      <point x="652" y="657"/>
      <point x="604" y="569" type="curve"/>
      <point x="556" y="657"/>
      <point x="474" y="710"/>
      <point x="360" y="710" type="curve" smooth="yes"/>
      <point x="218" y="710"/>
      <point x="135" y="632"/>
    </contour>
  </outline>
</glyph>
<glyph name="kip.proportional" format="2">
  <advance width="896"/>
  <outline>
    <contour>
      <point x="-54" y="0" type="line"/>
      <point x="295" y="0" type="line"/>
      <point x="322" y="95" type="line"/>
      <point x="320" y="95" type="line" smooth="yes"/>
      <point x="302" y="95"/>
      <point x="274" y="98"/>
      <point x="277" y="105" type="curve" smooth="yes"/>
      <point x="433" y="605" type="line" smooth="yes"/>
      <point x="435" y="612"/>
      <point x="451" y="615"/>
      <point x="482" y="615" type="curve" smooth="yes"/>
      <point x="488" y="615" type="line"/>
      <point x="516" y="710" type="line"/>
      <point x="164" y="710" type="line"/>
      <point x="137" y="615" type="line"/>
      <point x="144" y="615" type="line" smooth="yes"/>
      <point x="183" y="615"/>
      <point x="196" y="608"/>
      <point x="188" y="579" type="curve" smooth="yes"/>
      <point x="47" y="131" type="line" smooth="yes"/>
      <point x="39" y="102"/>
      <point x="20" y="95"/>
      <point x="-19" y="95" type="curve" smooth="yes"/>
      <point x="-26" y="95" type="line"/>
    </contour>
    <contour>
      <point x="59" y="424" type="line"/>
      <point x="31" y="329" type="line"/>
      <point x="802" y="329" type="line"/>
      <point x="830" y="424" type="line"/>
    </contour>
    <contour>
      <point x="406" y="0" type="line"/>
      <point x="759" y="0" type="line"/>
      <point x="786" y="95" type="line"/>
      <point x="773" y="95" type="line" smooth="yes"/>
      <point x="738" y="95"/>
      <point x="726" y="100"/>
      <point x="713" y="128" type="curve" smooth="yes"/>
      <point x="583" y="413" type="line"/>
      <point x="519" y="340" type="line"/>
      <point x="794" y="586" type="line" smooth="yes"/>
      <point x="821" y="611"/>
      <point x="841" y="615"/>
      <point x="886" y="615" type="curve" smooth="yes"/>
      <point x="894" y="615" type="line"/>
      <point x="922" y="710" type="line"/>
      <point x="624" y="710" type="line"/>
      <point x="596" y="615" type="line"/>
      <point x="604" y="615" type="line" smooth="yes"/>
      <point x="637" y="615"/>
      <point x="662" y="612"/>
      <point x="659" y="605" type="curve"/>
      <point x="393" y="370" type="line"/>
      <point x="379" y="360" type="line"/>
      <point x="487" y="105" type="line"/>
      <point x="485" y="98"/>
      <point x="464" y="95"/>
      <point x="439" y="95" type="curve" smooth="yes"/>
      <point x="434" y="95" type="line"/>
    </contour>
  </outline>
</glyph>
<glyph name="lira.altprop" format="2">
  <advance width="812"/>
  <outline>
    <contour>
      <point x="91" y="509" type="line"/>
      <point x="66" y="422" type="line"/>
      <point x="624" y="422" type="line"/>
      <point x="649" y="509" type="line"/>
    </contour>
    <contour>
      <point x="-38" y="0" type="line"/>
      <point x="675" y="0" type="line"/>
      <point x="742" y="234" type="line"/>
      <point x="609" y="234" type="line"/>
      <point x="575" y="180" type="line" smooth="yes"/>
      <point x="553" y="142"/>
      <point x="519" y="135"/>
      <point x="424" y="135" type="curve" smooth="yes"/>
      <point x="141" y="135" type="line"/>
      <point x="81" y="88" type="line"/>
      <point x="301" y="118"/>
      <point x="418" y="200"/>
      <point x="418" y="327" type="curve" smooth="yes"/>
      <point x="418" y="391"/>
      <point x="419" y="433"/>
      <point x="419" y="507" type="curve" smooth="yes"/>
      <point x="419" y="605"/>
      <point x="442" y="650"/>
      <point x="549" y="650" type="curve" smooth="yes"/>
      <point x="626" y="650"/>
      <point x="667" y="632"/>
      <point x="698" y="608" type="curve"/>
      <point x="694" y="616"/>
      <point x="665" y="678"/>
      <point x="627" y="680" type="curve"/>
      <point x="591" y="561" type="line"/>
      <point x="785" y="561" type="line"/>
      <point x="823" y="686" type="line"/>
      <point x="776" y="710"/>
      <point x="666" y="735"/>
      <point x="523" y="735" type="curve" smooth="yes"/>
      <point x="285" y="735"/>
      <point x="162" y="689"/>
      <point x="162" y="565" type="curve" smooth="yes"/>
      <point x="162" y="484"/>
      <point x="214" y="449"/>
      <point x="214" y="322" type="curve" smooth="yes"/>
      <point x="214" y="194"/>
      <point x="129" y="167"/>
      <point x="2" y="139" type="curve"/>
    </contour>
    <contour>
      <point x="43" y="353" type="line"/>
      <point x="18" y="266" type="line"/>
      <point x="576" y="266" type="line"/>
      <point x="602" y="353" type="line"/>
    </contour>
  </outline>
</glyph>
<glyph name="lira.proportional" format="2">
  <advance width="846"/>
  <outline>
    <contour>
      <point x="331" y="155" type="line"/>
      <point x="382" y="22"/>
      <point x="409" y="-10"/>
      <point x="534" y="-10" type="curve" smooth="yes"/>
      <point x="689" y="-10"/>
      <point x="747" y="63"/>
      <point x="800" y="200" type="curve"/>
      <point x="684" y="239" type="line"/>
      <point x="651" y="174"/>
      <point x="617" y="149"/>
      <point x="549" y="149" type="curve" smooth="yes"/>
      <point x="466" y="149"/>
      <point x="423" y="160"/>
      <point x="393" y="215" type="curve"/>
    </contour>
    <contour>
      <point x="102" y="509" type="line"/>
      <point x="77" y="423" type="line"/>
      <point x="648" y="423" type="line"/>
      <point x="674" y="509" type="line"/>
    </contour>
    <contour>
      <point x="54" y="353" type="line"/>
      <point x="29" y="266" type="line"/>
      <point x="601" y="266" type="line"/>
      <point x="626" y="353" type="line"/>
    </contour>
    <contour>
      <point x="561" y="735" type="curve" smooth="yes"/>
      <point x="316" y="735"/>
      <point x="179" y="677"/>
      <point x="179" y="564" type="curve" smooth="yes"/>
      <point x="179" y="501"/>
      <point x="240" y="453"/>
      <point x="240" y="311" type="curve" smooth="yes"/>
      <point x="240" y="211"/>
      <point x="176" y="160"/>
      <point x="26" y="141" type="curve"/>
      <point x="-17" y="-13" type="line"/>
      <point x="294" y="12"/>
      <point x="451" y="153"/>
      <point x="451" y="334" type="curve" smooth="yes"/>
      <point x="451" y="396"/>
      <point x="434" y="463"/>
      <point x="434" y="516" type="curve" smooth="yes"/>
      <point x="434" y="595"/>
      <point x="457" y="650"/>
      <point x="579" y="650" type="curve" smooth="yes"/>
      <point x="656" y="650"/>
      <point x="702" y="632"/>
      <point x="734" y="607" type="curve"/>
      <point x="730" y="617"/>
      <point x="701" y="678"/>
      <point x="662" y="680" type="curve"/>
      <point x="625" y="563" type="line"/>
      <point x="820" y="563" type="line"/>
      <point x="858" y="686" type="line"/>
      <point x="812" y="709"/>
      <point x="696" y="735"/>
    </contour>
  </outline>
</glyph>
<glyph name="liraTurkish.proportional" format="2">
  <advance width="890"/>
  <outline>
    <contour>
      <point x="15" y="239" type="line"/>
      <point x="-13" y="147" type="line"/>
      <point x="676" y="367" type="line"/>
      <point x="702" y="460" type="line"/>
    </contour>
    <contour>
      <point x="69" y="419" type="line"/>
      <point x="43" y="326" type="line"/>
      <point x="731" y="546" type="line"/>
      <point x="758" y="639" type="line"/>
    </contour>
    <contour>
      <point x="401" y="94" type="curve" smooth="yes"/>
      <point x="318" y="94" type="line"/>
      <point x="467" y="574" type="line" smooth="yes"/>
      <point x="477" y="603"/>
      <point x="503" y="610"/>
      <point x="537" y="610" type="curve" smooth="yes"/>
      <point x="553" y="610" type="line"/>
      <point x="583" y="710" type="line"/>
      <point x="208" y="710" type="line"/>
      <point x="177" y="610" type="line"/>
      <point x="191" y="610" type="line" smooth="yes"/>
      <point x="232" y="610"/>
      <point x="265" y="603"/>
      <point x="255" y="574" type="curve" smooth="yes"/>
      <point x="119" y="137" type="line" smooth="yes"/>
      <point x="109" y="108"/>
      <point x="75" y="101"/>
      <point x="33" y="101" type="curve" smooth="yes"/>
      <point x="20" y="101" type="line"/>
      <point x="-11" y="0" type="line"/>
      <point x="328" y="0" type="line" smooth="yes"/>
      <point x="651" y="0"/>
      <point x="768" y="85"/>
      <point x="824" y="256" type="curve"/>
      <point x="665" y="292" type="line"/>
      <point x="627" y="169"/>
      <point x="578" y="94"/>
    </contour>
  </outline>
</glyph>
<glyph name="manat.proportional" format="2">
  <advance width="1037"/>
  <outline>
    <contour>
      <point x="611" y="771" type="line"/>
      <point x="414" y="124" type="line"/>
      <point x="534" y="124" type="line"/>
      <point x="731" y="771" type="line"/>
    </contour>
    <contour>
      <point x="-43" y="0" type="curve"/>
      <point x="219" y="0" type="line"/>
      <point x="366" y="454"/>
      <point x="396" y="537"/>
      <point x="604" y="537" type="curve" smooth="yes"/>
      <point x="809" y="537"/>
      <point x="785" y="455"/>
      <point x="651" y="0" type="curve"/>
      <point x="913" y="0" type="line"/>
      <point x="1038" y="471"/>
      <point x="882" y="627"/>
      <point x="604" y="627" type="curve" smooth="yes"/>
      <point x="321" y="627"/>
      <point x="107" y="471"/>
    </contour>
  </outline>
</glyph>
<glyph name="minus.sup" format="2">
  <advance width="516"/>
  <outline>
    <contour>
      <point x="534" y="639" type="line"/>
      <point x="110" y="639" type="line"/>
      <point x="80" y="536" type="line"/>
      <point x="505" y="536" type="line"/>
    </contour>
  </outline>
</glyph>
<glyph name="peso.proportional" format="2">
  <advance width="923"/>
  <outline>
    <contour>
      <point x="95" y="511" type="line"/>
      <point x="67" y="417" type="line"/>
      <point x="239" y="417" type="line"/>
      <point x="278" y="439" type="line"/>
      <point x="647" y="439" type="line"/>
      <point x="662" y="417" type="line"/>
      <point x="904" y="417" type="line"/>
      <point x="932" y="511" type="line"/>
      <point x="715" y="511" type="line"/>
      <point x="654" y="490" type="line"/>
      <point x="290" y="490" type="line"/>
      <point x="272" y="511" type="line"/>
    </contour>
    <contour>
      <point x="347" y="283" type="line"/>
      <point x="452" y="626" type="line"/>
      <point x="469" y="626" type="line" smooth="yes"/>
      <point x="553" y="626"/>
      <point x="599" y="600"/>
      <point x="599" y="525" type="curve" smooth="yes"/>
      <point x="599" y="485"/>
      <point x="594" y="442"/>
      <point x="581" y="403" type="curve" smooth="yes"/>
      <point x="556" y="337"/>
      <point x="501" y="283"/>
      <point x="391" y="283" type="curve" smooth="yes"/>
    </contour>
    <contour>
      <point x="187" y="710" type="line"/>
      <point x="159" y="615" type="line"/>
      <point x="172" y="615" type="line" smooth="yes"/>
      <point x="214" y="615"/>
      <point x="228" y="608"/>
      <point x="220" y="579" type="curve" smooth="yes"/>
      <point x="77" y="120" type="line" smooth="yes"/>
      <point x="68" y="91"/>
      <point x="50" y="84"/>
      <point x="7" y="84" type="curve" smooth="yes"/>
      <point x="-7" y="84" type="line"/>
      <point x="-32" y="0" type="line"/>
      <point x="358" y="0" type="line"/>
      <point x="384" y="84" type="line"/>
      <point x="363" y="84" type="line" smooth="yes"/>
      <point x="326" y="84"/>
      <point x="285" y="87"/>
      <point x="287" y="94" type="curve" smooth="yes"/>
      <point x="322" y="201" type="line"/>
      <point x="400" y="201" type="line" smooth="yes"/>
      <point x="665" y="201"/>
      <point x="816" y="319"/>
      <point x="816" y="496" type="curve" smooth="yes"/>
      <point x="816" y="635"/>
      <point x="706" y="710"/>
      <point x="488" y="710" type="curve" smooth="yes"/>
    </contour>
  </outline>
</glyph>
<glyph name="rupeeIndian" format="2">
  <advance width="680"/>
  <outline>
    <contour>
      <point x="87" y="494" type="line"/>
      <point x="59" y="400" type="line"/>
      <point x="660" y="400" type="line"/>
      <point x="687" y="494" type="line"/>
    </contour>
    <contour>
      <point x="65" y="237" type="line"/>
      <point x="157" y="237" type="line" smooth="yes"/>
      <point x="381" y="237"/>
      <point x="540" y="295"/>
      <point x="540" y="451" type="curve" smooth="yes"/>
      <point x="540" y="580"/>
      <point x="435" y="623"/>
      <point x="248" y="627" type="curve"/>
      <point x="245" y="616" type="line"/>
      <point x="725" y="616" type="line"/>
      <point x="753" y="710" type="line"/>
      <point x="153" y="710" type="line"/>
      <point x="122" y="607" type="line"/>
      <point x="167" y="607" type="line"/>
      <point x="287" y="607"/>
      <point x="317" y="568"/>
      <point x="317" y="496" type="curve" smooth="yes"/>
      <point x="317" y="377"/>
      <point x="279" y="284"/>
      <point x="92" y="284" type="curve" smooth="yes"/>
      <point x="36" y="284" type="line"/>
      <point x="9" y="190" type="line"/>
      <point x="203" y="0" type="line"/>
      <point x="465" y="0" type="line"/>
      <point x="492" y="95" type="line"/>
      <point x="458" y="95" type="line" smooth="yes"/>
      <point x="421" y="95"/>
      <point x="407" y="101"/>
      <point x="384" y="123" type="curve" smooth="yes"/>
      <point x="233" y="265" type="line"/>
    </contour>
  </outline>
</glyph>
<glyph name="rupeeIndian.proportional" format="2">
  <advance width="756"/>
  <outline>
    <contour>
      <point x="231" y="0" type="line"/>
      <point x="483" y="0" type="line"/>
      <point x="511" y="95" type="line"/>
      <point x="487" y="95" type="line" smooth="yes"/>
      <point x="443" y="95"/>
      <point x="429" y="105"/>
      <point x="408" y="123" type="curve" smooth="yes"/>
      <point x="236" y="265" type="line"/>
      <point x="110" y="241" type="line"/>
      <point x="171" y="241" type="line" smooth="yes"/>
      <point x="431" y="241"/>
      <point x="583" y="300"/>
      <point x="583" y="459" type="curve" smooth="yes"/>
      <point x="583" y="557"/>
      <point x="508" y="609"/>
      <point x="369" y="623" type="curve"/>
      <point x="303" y="616" type="line"/>
      <point x="777" y="616" type="line"/>
      <point x="804" y="710" type="line"/>
      <point x="156" y="710" type="line"/>
      <point x="126" y="607" type="line"/>
      <point x="238" y="607" type="line"/>
      <point x="330" y="607"/>
      <point x="365" y="563"/>
      <point x="365" y="494" type="curve" smooth="yes"/>
      <point x="365" y="375"/>
      <point x="303" y="284"/>
      <point x="134" y="284" type="curve" smooth="yes"/>
      <point x="39" y="284" type="line"/>
      <point x="13" y="190" type="line"/>
    </contour>
    <contour>
      <point x="90" y="494" type="line"/>
      <point x="63" y="400" type="line"/>
      <point x="711" y="400" type="line"/>
      <point x="739" y="494" type="line"/>
    </contour>
  </outline>
</glyph>
<glyph name="six.linprop" format="2">
  <advance width="771"/>
  <outline>
    <contour>
      <point x="767" y="647" type="line"/>
      <point x="566" y="643"/>
      <point x="440" y="576"/>
      <point x="362" y="488" type="curve" smooth="yes"/>
      <point x="276" y="386"/>
      <point x="250" y="256"/>
      <point x="250" y="167" type="curve" smooth="yes"/>
      <point x="250" y="112"/>
      <point x="274" y="83"/>
      <point x="334" y="83" type="curve" smooth="yes"/>
      <point x="403" y="83"/>
      <point x="444" y="142"/>
      <point x="465" y="203" type="curve" smooth="yes"/>
      <point x="481" y="249"/>
      <point x="487" y="296"/>
      <point x="487" y="321" type="curve" smooth="yes"/>
      <point x="487" y="360"/>
      <point x="471" y="381"/>
      <point x="414" y="381" type="curve" smooth="yes"/>
      <point x="363" y="381"/>
      <point x="323" y="363"/>
      <point x="255" y="295" type="curve"/>
      <point x="252" y="331" type="line"/>
      <point x="322" y="411"/>
      <point x="385" y="474"/>
      <point x="513" y="474" type="curve" smooth="yes"/>
      <point x="647" y="474"/>
      <point x="727" y="409"/>
      <point x="727" y="309" type="curve" smooth="yes"/>
      <point x="727" y="129"/>
      <point x="606" y="-10"/>
      <point x="324" y="-10" type="curve" smooth="yes"/>
      <point x="127" y="-10"/>
      <point x="16" y="72"/>
      <point x="16" y="204" type="curve" smooth="yes"/>
      <point x="16" y="465"/>
      <point x="231" y="732"/>
      <point x="764" y="751" type="curve"/>
    </contour>
  </outline>
</glyph>
<glyph name="sterling.alt" format="2">
  <advance width="680"/>
  <outline>
    <contour>
      <point x="-65" y="0" type="line"/>
      <point x="563" y="0" type="line"/>
      <point x="633" y="244" type="line"/>
      <point x="502" y="244" type="line"/>
      <point x="464" y="180" type="line" smooth="yes"/>
      <point x="444" y="142"/>
      <point x="408" y="135"/>
      <point x="313" y="135" type="curve" smooth="yes"/>
      <point x="126" y="135" type="line"/>
      <point x="110" y="114" type="line"/>
      <point x="248" y="132"/>
      <point x="378" y="196"/>
      <point x="378" y="341" type="curve" smooth="yes"/>
      <point x="378" y="416"/>
      <point x="368" y="455"/>
      <point x="368" y="509" type="curve" smooth="yes"/>
      <point x="368" y="589"/>
      <point x="392" y="632"/>
      <point x="484" y="632" type="curve" smooth="yes"/>
      <point x="549" y="632"/>
      <point x="602" y="618"/>
      <point x="630" y="596" type="curve"/>
      <point x="619" y="604"/>
      <point x="582" y="678"/>
      <point x="545" y="680" type="curve"/>
      <point x="491" y="505" type="line"/>
      <point x="678" y="505" type="line"/>
      <point x="732" y="681" type="line"/>
      <point x="690" y="706"/>
      <point x="592" y="735"/>
      <point x="452" y="735" type="curve" smooth="yes"/>
      <point x="207" y="735"/>
      <point x="101" y="663"/>
      <point x="101" y="554" type="curve" smooth="yes"/>
      <point x="101" y="472"/>
      <point x="173" y="427"/>
      <point x="173" y="338" type="curve" smooth="yes"/>
      <point x="173" y="228"/>
      <point x="113" y="175"/>
      <point x="-24" y="142" type="curve"/>
    </contour>
    <contour>
      <point x="49" y="419" type="line"/>
      <point x="17" y="309" type="line"/>
      <point x="525" y="309" type="line"/>
      <point x="557" y="419" type="line"/>
    </contour>
  </outline>
</glyph>
<glyph name="sterling.proportional" format="2">
  <advance width="834"/>
  <outline>
    <contour>
      <point x="555" y="632" type="curve" smooth="yes"/>
      <point x="633" y="632"/>
      <point x="673" y="614"/>
      <point x="704" y="590" type="curve"/>
      <point x="700" y="600"/>
      <point x="671" y="678"/>
      <point x="633" y="680" type="curve"/>
      <point x="580" y="510" type="line"/>
      <point x="774" y="510" type="line"/>
      <point x="829" y="686" type="line"/>
      <point x="782" y="709"/>
      <point x="672" y="735"/>
      <point x="530" y="735" type="curve" smooth="yes"/>
      <point x="298" y="735"/>
      <point x="147" y="672"/>
      <point x="147" y="548" type="curve" smooth="yes"/>
      <point x="147" y="469"/>
      <point x="219" y="426"/>
      <point x="219" y="311" type="curve" smooth="yes"/>
      <point x="219" y="211"/>
      <point x="158" y="160"/>
      <point x="8" y="141" type="curve"/>
      <point x="-35" y="-13" type="line"/>
      <point x="276" y="12"/>
      <point x="429" y="153"/>
      <point x="429" y="333" type="curve" smooth="yes"/>
      <point x="429" y="396"/>
      <point x="421" y="435"/>
      <point x="421" y="488" type="curve" smooth="yes"/>
      <point x="421" y="578"/>
      <point x="449" y="632"/>
    </contour>
    <contour>
      <point x="77" y="420" type="line"/>
      <point x="44" y="309" type="line"/>
      <point x="614" y="309" type="line"/>
      <point x="647" y="420" type="line"/>
    </contour>
    <contour>
      <point x="517" y="-10" type="curve"/>
      <point x="671" y="-10"/>
      <point x="729" y="85"/>
      <point x="782" y="226" type="curve"/>
      <point x="666" y="264" type="line"/>
      <point x="632" y="196"/>
      <point x="600" y="170"/>
      <point x="531" y="170" type="curve"/>
      <point x="448" y="170"/>
      <point x="406" y="181"/>
      <point x="376" y="236" type="curve"/>
      <point x="312" y="177" type="line"/>
      <point x="364" y="44"/>
      <point x="391" y="-10"/>
    </contour>
  </outline>
</glyph>
<glyph name="three.oldtab" format="2">
  <advance width="680"/>
  <outline>
    <contour>
      <point x="247" y="-84" type="curve" smooth="yes"/>
      <point x="491" y="-84"/>
      <point x="606" y="-4"/>
      <point x="606" y="131" type="curve" smooth="yes"/>
      <point x="606" y="229"/>
      <point x="528" y="281"/>
      <point x="362" y="296" type="curve"/>
      <point x="399" y="271" type="line"/>
      <point x="410" y="310" type="line"/>
      <point x="364" y="298" type="line"/>
      <point x="564" y="305"/>
      <point x="675" y="363"/>
      <point x="675" y="495" type="curve" smooth="yes"/>
      <point x="675" y="603"/>
      <point x="578" y="655"/>
      <point x="390" y="655" type="curve" smooth="yes"/>
      <point x="280" y="655"/>
      <point x="200" y="638"/>
      <point x="147" y="623" type="curve"/>
      <point x="95" y="443" type="line"/>
      <point x="270" y="443" type="line"/>
      <point x="311" y="579" type="line"/>
      <point x="272" y="574"/>
      <point x="253" y="567"/>
      <point x="248" y="551" type="curve"/>
      <point x="275" y="557"/>
      <point x="315" y="562"/>
      <point x="353" y="562" type="curve" smooth="yes"/>
      <point x="420" y="562"/>
      <point x="448" y="548"/>
      <point x="448" y="494" type="curve" smooth="yes"/>
      <point x="448" y="422"/>
      <point x="407" y="347"/>
      <point x="294" y="347" type="curve"/>
      <point x="173" y="347" type="line"/>
      <point x="143" y="244" type="line"/>
      <point x="254" y="244" type="line" smooth="yes"/>
      <point x="340" y="244"/>
      <point x="368" y="208"/>
      <point x="368" y="159" type="curve" smooth="yes"/>
      <point x="368" y="89"/>
      <point x="341" y="15"/>
      <point x="237" y="15" type="curve" smooth="yes"/>
      <point x="135" y="15"/>
      <point x="106" y="67"/>
      <point x="84" y="123" type="curve"/>
      <point x="-48" y="80" type="line"/>
      <point x="-13" y="-12"/>
      <point x="51" y="-84"/>
    </contour>
  </outline>
</glyph>
<glyph name="two.lintab" format="2">
  <advance width="680"/>
  <outline>
    <contour>
      <point x="-68" y="0" type="line"/>
      <point x="-10" y="199" type="line"/>
      <point x="305" y="317"/>
      <point x="427" y="390"/>
      <point x="427" y="562" type="curve" smooth="yes"/>
      <point x="427" y="619"/>
      <point x="409" y="636"/>
      <point x="342" y="636" type="curve" smooth="yes"/>
      <point x="300" y="636"/>
      <point x="257" y="628"/>
      <point x="236" y="617" type="curve"/>
      <point x="222" y="644"/>
      <point x="255" y="651"/>
      <point x="304" y="655" type="curve"/>
      <point x="255" y="488" type="line"/>
      <point x="64" y="488" type="line"/>
      <point x="121" y="683" type="line"/>
      <point x="168" y="703"/>
      <point x="256" y="735"/>
      <point x="380" y="735" type="curve" smooth="yes"/>
      <point x="575" y="735"/>
      <point x="675" y="689"/>
      <point x="675" y="552" type="curve" smooth="yes"/>
      <point x="675" y="329"/>
      <point x="410" y="270"/>
      <point x="32" y="143" type="curve"/>
      <point x="25" y="157" type="line"/>
      <point x="340" y="157" type="line" smooth="yes"/>
      <point x="435" y="157"/>
      <point x="469" y="159"/>
      <point x="488" y="196" type="curve" smooth="yes"/>
      <point x="517" y="245" type="line"/>
      <point x="626" y="245" type="line"/>
      <point x="556" y="0" type="line"/>
    </contour>
  </outline>
</glyph>
<glyph name="two.midprop" format="2">
  <advance width="732"/>
  <outline>
    <contour>
      <point x="386" y="157" type="line" smooth="yes"/>
      <point x="481" y="157"/>
      <point x="514" y="159"/>
      <point x="533" y="196" type="curve" smooth="yes"/>
      <point x="562" y="246" type="line"/>
      <point x="672" y="246" type="line"/>
      <point x="602" y="0" type="line"/>
      <point x="-64" y="0" type="line"/>
      <point x="-7" y="202" type="line"/>
      <point x="430" y="349"/>
      <point x="474" y="435"/>
      <point x="474" y="527" type="curve" smooth="yes"/>
      <point x="474" y="571"/>
      <point x="448" y="599"/>
      <point x="379" y="599" type="curve" smooth="yes"/>
      <point x="314" y="599"/>
      <point x="254" y="575"/>
      <point x="247" y="572" type="curve"/>
      <point x="234" y="584"/>
      <point x="261" y="611"/>
      <point x="320" y="616" type="curve"/>
      <point x="270" y="452" type="line"/>
      <point x="72" y="452" type="line"/>
      <point x="128" y="640" type="line"/>
      <point x="183" y="664"/>
      <point x="294" y="697"/>
      <point x="417" y="697" type="curve" smooth="yes"/>
      <point x="613" y="697"/>
      <point x="733" y="646"/>
      <point x="733" y="525" type="curve" smooth="yes"/>
      <point x="733" y="294"/>
      <point x="440" y="269"/>
      <point x="36" y="140" type="curve"/>
      <point x="29" y="157" type="line"/>
    </contour>
  </outline>
</glyph>
<glyph name="whiteuppointingtriangle" format="2">
  <advance width="791"/>
  <outline>
    <contour>
      <point x="735" y="91" type="line"/>
      <point x="407" y="464" type="line"/>
      <point x="79" y="91" type="line"/>
    </contour>
    <contour>
      <point x="622" y="125" type="line"/>
      <point x="631" y="141" type="line"/>
      <point x="184" y="141" type="line"/>
      <point x="192" y="125" type="line"/>
      <point x="414" y="380" type="line"/>
      <point x="401" y="380" type="line"/>
    </contour>
  </outline>
</glyph>
<glyph name="zero.propslash" format="2">
  <advance width="840"/>
  <outline>
    <contour>
      <point x="191" y="129" type="line"/>
      <point x="664" y="469" type="line"/>
      <point x="654" y="556" type="line"/>
      <point x="177" y="213" type="line"/>
    </contour>
    <contour>
      <point x="357" y="-11" type="curve" smooth="yes"/>
      <point x="684" y="-11"/>
      <point x="807" y="219"/>
      <point x="807" y="451" type="curve" smooth="yes"/>
      <point x="807" y="615"/>
      <point x="664" y="697"/>
      <point x="484" y="697" type="curve" smooth="yes"/>
      <point x="156" y="697"/>
      <point x="34" y="468"/>
      <point x="34" y="236" type="curve" smooth="yes"/>
      <point x="34" y="71"/>
      <point x="176" y="-11"/>
    </contour>
    <contour>
      <point x="361" y="88" type="curve" smooth="yes"/>
      <point x="290" y="88"/>
      <point x="272" y="117"/>
      <point x="272" y="164" type="curve" smooth="yes"/>
      <point x="272" y="209"/>
      <point x="280" y="265"/>
      <point x="308" y="360" type="curve" smooth="yes"/>
      <point x="364" y="554"/>
      <point x="405" y="599"/>
      <point x="479" y="599" type="curve" smooth="yes"/>
      <point x="551" y="599"/>
      <point x="568" y="569"/>
      <point x="568" y="522" type="curve" smooth="yes"/>
      <point x="568" y="477"/>
      <point x="561" y="422"/>
      <point x="533" y="327" type="curve" smooth="yes"/>
      <point x="477" y="132"/>
      <point x="435" y="88"/>
    </contour>
  </outline>
</glyph>
